<?xml version="1.0" standalone="no"?>
<!DOCTYPE svg PUBLIC "-//W3C//DTD SVG 20010904//EN"
 "http://www.w3.org/TR/2001/REC-SVG-20010904/DTD/svg10.dtd">
<svg version="1.0" xmlns="http://www.w3.org/2000/svg"
 width="951.000000pt" height="1280.000000pt" viewBox="0 0 951.000000 1280.000000"
 preserveAspectRatio="xMidYMid meet">
<metadata>
Created by potrace 1.15, written by Peter Selinger 2001-2017
</metadata>
<g transform="translate(0.000000,1280.000000) scale(0.100000,-0.100000)"
fill="#000000" stroke="none">
<path d="M6195 12749 c-49 -49 -110 -89 -138 -89 -22 0 -107 -48 -156 -88 -24
-19 -50 -51 -58 -71 -9 -20 -31 -53 -50 -74 -42 -47 -123 -210 -123 -249 0
-21 6 -29 25 -34 35 -9 73 7 174 71 48 30 92 55 98 55 14 0 199 -196 244 -257
18 -25 25 -43 18 -43 -7 0 -65 24 -128 54 -147 69 -192 80 -290 73 -131 -10
-238 -64 -277 -138 -15 -29 -19 -135 -6 -156 11 -17 62 -34 82 -28 10 3 36 26
58 50 48 53 63 55 219 29 117 -18 152 -32 223 -88 30 -24 93 -66 140 -94 47
-27 103 -66 125 -86 l40 -37 -35 7 c-19 3 -102 31 -185 61 -241 87 -329 105
-405 83 -24 -7 -79 -5 -184 5 -234 24 -497 19 -1096 -20 -262 -17 -221 -35
-320 136 -114 196 -220 291 -455 406 l-119 58 -116 -1 c-270 -3 -429 -42 -608
-149 -144 -86 -178 -123 -260 -288 -86 -171 -101 -234 -101 -432 -1 -185 23
-283 86 -359 40 -48 84 -144 99 -218 8 -39 23 -87 34 -108 11 -21 27 -73 35
-116 9 -42 38 -145 65 -228 l49 -151 -46 -60 c-123 -160 -175 -194 -291 -195
-105 0 -133 -15 -188 -100 -25 -39 -57 -96 -71 -126 -23 -52 -25 -60 -14 -112
15 -74 14 -134 -2 -156 -13 -18 -15 -18 -40 -2 -33 22 -136 142 -246 286 -170
222 -281 401 -281 450 0 37 -56 158 -67 146 -3 -3 11 -71 31 -153 43 -178 70
-333 90 -509 16 -140 31 -195 95 -348 90 -215 149 -470 206 -893 40 -301 46
-334 60 -334 16 -1 34 82 28 127 -3 24 2 64 13 99 34 120 5 452 -67 744 -51
210 -94 311 -193 464 -64 97 -89 156 -110 260 -18 84 -20 117 -8 117 4 0 34
-42 67 -92 66 -102 139 -196 232 -301 33 -38 72 -90 86 -115 25 -48 151 -490
163 -572 12 -89 37 -167 100 -323 36 -87 72 -189 82 -225 13 -51 22 -68 37
-70 32 -6 43 -20 65 -80 12 -32 30 -69 40 -84 18 -24 18 -29 5 -55 -17 -33
-20 -140 -4 -145 6 -2 -8 -41 -35 -93 -25 -50 -54 -119 -66 -153 -18 -56 -20
-73 -11 -136 11 -80 0 -260 -18 -293 -13 -26 -73 -78 -111 -98 -41 -21 -40 -5
7 84 20 39 34 74 30 77 -9 10 -65 -84 -89 -148 -17 -49 -26 -60 -62 -77 -23
-11 -51 -18 -63 -15 -26 7 -73 -22 -73 -46 0 -35 -74 -76 -118 -65 -25 6 -52
57 -52 98 0 13 14 70 31 126 17 56 28 105 24 109 -11 11 -35 -29 -51 -88 -26
-96 -49 -153 -61 -157 -6 -3 -39 21 -72 51 -61 56 -85 65 -122 45 -11 -5 -28
-9 -37 -7 -13 3 -5 17 37 61 65 69 91 74 91 20 1 -36 1 -37 16 -18 8 11 22 46
32 79 11 42 22 61 39 69 27 12 29 22 7 31 -30 12 -42 6 -105 -54 -65 -62 -140
-107 -159 -95 -17 11 4 30 76 70 35 20 64 42 64 50 0 8 -16 53 -35 99 -38 91
-43 136 -20 176 8 14 14 39 15 56 0 54 -38 158 -73 199 -19 22 -41 54 -50 70
-16 33 -43 154 -49 220 -3 37 -1 40 27 45 58 10 58 97 1 285 -30 99 -99 400
-120 519 -17 95 -12 116 25 116 18 0 17 3 -6 39 -33 48 -44 136 -22 166 13 17
18 18 41 7 24 -11 26 -10 26 11 -1 12 -7 33 -14 46 -17 30 -11 57 44 196 23
61 45 134 47 165 6 66 -12 275 -33 378 -22 108 -46 153 -123 237 -87 93 -89
106 -21 98 55 -6 73 13 21 23 -19 4 -31 14 -35 29 -8 33 11 216 35 325 50 232
60 369 35 452 -17 56 -86 159 -118 176 -14 8 -38 12 -53 10 -25 -3 -30 -9 -38
-43 -12 -54 -2 -146 24 -224 l22 -64 -47 -92 c-55 -108 -97 -155 -121 -135
-19 16 -61 148 -70 225 -4 33 -28 125 -55 205 -49 150 -62 210 -81 390 -11
109 -41 205 -70 223 -25 16 -68 0 -81 -31 -18 -42 -15 -285 4 -357 9 -33 19
-85 23 -115 3 -30 14 -84 24 -120 10 -36 28 -105 39 -153 12 -49 40 -134 62
-189 43 -106 50 -148 25 -148 -20 0 -47 57 -85 180 -38 123 -83 225 -133 297
-70 103 -97 222 -97 424 0 105 -1 110 -27 138 -45 48 -68 49 -112 4 -33 -33
-40 -47 -46 -98 -11 -82 1 -228 24 -300 10 -33 37 -107 61 -164 29 -71 40
-111 35 -128 -6 -25 -6 -25 -27 -7 -34 31 -137 193 -147 232 -5 21 -12 84 -15
140 -7 109 -15 136 -50 164 -53 43 -78 16 -97 -104 -18 -117 28 -362 78 -416
14 -15 40 -57 59 -95 18 -37 51 -93 73 -124 23 -31 39 -58 36 -61 -2 -2 -79
66 -169 153 -147 140 -170 166 -203 232 -55 112 -138 157 -170 93 -19 -38 -17
-184 4 -228 23 -48 199 -224 250 -250 45 -23 94 -75 122 -130 11 -20 56 -70
101 -111 89 -81 238 -243 278 -304 25 -37 25 -39 9 -65 -76 -118 -255 -519
-284 -637 -32 -132 7 -253 149 -454 105 -149 156 -246 186 -356 22 -83 25
-116 32 -410 9 -355 25 -471 74 -546 15 -21 26 -43 26 -49 0 -5 14 -17 30 -25
66 -34 309 -227 380 -301 69 -72 160 -210 188 -285 6 -14 22 -43 36 -64 15
-21 32 -58 37 -82 16 -60 24 -64 97 -47 68 16 82 13 82 -17 0 -13 7 -19 23
-19 25 0 44 -12 131 -82 32 -26 73 -50 90 -54 17 -3 38 -13 47 -21 15 -12 23
-8 75 37 33 29 96 74 142 102 98 59 227 154 263 194 26 29 27 30 32 239 4 144
11 226 21 260 17 54 69 125 92 125 8 0 36 23 63 51 47 50 51 51 122 60 41 4
121 8 179 9 136 1 342 17 403 31 34 8 61 24 95 57 27 26 105 78 173 116 68 38
140 79 160 90 l37 20 153 -71 c85 -39 215 -97 289 -128 371 -157 439 -189 492
-225 31 -22 68 -40 82 -40 30 0 267 -119 362 -182 39 -26 79 -50 90 -54 10 -4
28 -15 40 -26 11 -10 56 -36 100 -57 155 -75 269 -143 624 -376 186 -122 394
-270 470 -334 73 -63 120 -95 120 -83 0 18 -268 283 -439 436 -165 146 -328
269 -503 378 -51 32 -109 73 -129 91 -20 17 -69 50 -110 73 -41 23 -119 66
-174 97 -116 65 -168 85 -440 174 -267 86 -398 132 -408 142 -5 5 3 11 18 15
42 11 24 30 -41 44 -122 27 -144 35 -194 73 -28 21 -67 43 -86 48 -20 5 -59
28 -87 49 -132 101 -497 273 -497 235 0 -18 34 -41 121 -81 111 -51 118 -62
40 -62 -48 0 -61 -3 -61 -15 0 -22 41 -35 108 -35 44 -1 53 -3 39 -11 -53 -31
-628 -179 -696 -179 -34 0 -91 -35 -91 -56 0 -23 58 -14 273 42 259 67 337 86
350 81 6 -2 -28 -26 -77 -53 -49 -27 -110 -69 -135 -92 -25 -24 -56 -48 -68
-52 -20 -8 -149 -20 -393 -36 -108 -8 -188 9 -229 47 -22 20 -23 27 -17 93 l7
71 -45 -50 c-60 -68 -68 -58 -74 89 -5 123 9 275 35 371 24 94 22 155 -8 201
-14 22 -31 54 -37 73 -16 47 -15 138 3 197 21 68 19 81 -16 136 -25 39 -33 63
-36 116 -5 64 -4 69 27 107 18 22 40 56 50 75 22 42 63 82 107 104 45 23 87
85 70 105 -35 42 -230 104 -332 105 -126 1 -225 -70 -225 -161 0 -34 -3 -44
-11 -36 -14 14 -23 85 -15 117 8 31 109 142 147 162 40 20 178 18 290 -6 101
-21 169 -26 169 -11 0 10 -68 27 -145 37 -67 8 -85 13 -85 26 0 18 104 140
177 206 37 34 78 72 90 83 28 27 59 21 55 -11 -3 -33 32 -66 92 -86 28 -9 72
-28 99 -42 44 -24 48 -30 67 -91 21 -71 94 -204 129 -235 16 -14 21 -31 21
-67 0 -26 5 -51 11 -55 8 -4 9 3 4 25 -5 23 -3 31 7 31 7 0 73 -57 147 -126
74 -68 166 -149 205 -178 90 -67 230 -148 316 -182 130 -51 122 -35 -107 196
-220 224 -345 363 -419 466 -66 93 -58 108 29 50 54 -36 417 -331 701 -571 91
-77 185 -150 209 -162 81 -43 210 -61 783 -110 39 -3 87 -3 107 1 49 9 97 56
97 93 0 43 -55 102 -105 113 -22 5 -187 10 -366 10 -354 0 -461 10 -544 53
-25 12 -88 60 -141 107 l-96 85 98 6 c113 7 196 35 268 90 85 65 147 176 132
235 -9 34 -22 30 -50 -15 -35 -55 -110 -116 -196 -159 -67 -34 -81 -37 -155
-37 -71 0 -88 4 -155 36 -41 20 -118 62 -170 93 -52 32 -138 78 -190 104 -52
25 -102 54 -110 63 -8 9 -44 22 -80 29 -114 21 -541 172 -527 187 3 2 31 -3
63 -11 33 -9 118 -25 191 -36 72 -11 154 -29 182 -39 72 -29 224 -106 300
-154 86 -52 136 -77 157 -77 10 0 29 -11 43 -23 30 -28 92 -51 176 -67 58 -11
65 -10 140 19 110 43 157 72 175 106 11 22 15 63 15 150 -1 135 -15 201 -76
359 -21 54 -42 114 -45 133 -4 23 -15 38 -34 48 -50 26 -208 239 -315 424 -28
49 -67 99 -98 126 -56 50 -158 105 -191 105 -12 0 -71 11 -131 25 -61 14 -171
34 -245 45 -74 12 -179 30 -233 41 -125 26 -162 26 -230 1 -31 -12 -86 -28
-123 -37 -85 -20 -127 -46 -149 -92 -25 -52 -16 -102 54 -295 33 -91 63 -186
67 -210 3 -24 14 -64 24 -89 21 -51 83 -319 76 -326 -11 -11 -41 72 -105 294
-100 342 -124 408 -216 573 -62 111 -70 307 -21 475 15 50 52 141 82 204 73
149 130 209 264 274 119 59 218 84 440 112 l175 22 95 -50 c216 -113 293 -169
374 -272 66 -82 165 -241 235 -377 38 -73 81 -136 134 -197 153 -176 206 -291
337 -730 96 -320 114 -419 114 -601 0 -266 -46 -365 -233 -503 -24 -17 -47
-39 -51 -47 -39 -79 -38 -98 1 -117 46 -22 176 23 286 99 51 34 122 132 163
222 111 244 101 452 -42 914 -25 78 -47 132 -54 132 -18 0 -33 -86 -48 -272
-12 -161 -12 -162 -24 -110 -7 29 -12 78 -12 108 0 128 -45 425 -80 534 -70
213 -212 430 -324 493 -39 23 -120 123 -110 138 7 12 98 -24 146 -57 62 -43
197 -192 266 -291 76 -112 145 -253 171 -351 22 -84 33 -101 55 -83 68 57 28
319 -68 448 -54 72 -217 231 -273 267 -24 14 -43 30 -43 35 0 19 74 33 149 29
58 -4 118 -19 256 -66 337 -114 385 -120 385 -48 0 30 -4 35 -47 54 -27 11
-102 37 -168 58 l-120 39 75 9 c129 14 584 -18 767 -55 72 -14 133 -69 161
-146 26 -70 79 -157 110 -179 17 -12 73 -18 245 -26 l223 -11 61 28 c70 31 84
29 145 -22 49 -41 87 -59 141 -68 46 -7 79 -48 56 -69 -8 -8 -36 -17 -64 -21
l-50 -7 20 22 c15 16 17 25 9 38 -15 24 -110 27 -182 7 -79 -23 -238 -102
-260 -130 -10 -12 -31 -29 -47 -38 -54 -28 -155 -128 -206 -204 -83 -123 -121
-223 -86 -223 18 0 102 66 121 95 21 33 233 201 363 289 123 82 233 142 233
126 0 -6 -30 -31 -67 -57 -147 -102 -323 -310 -323 -381 0 -47 23 -28 86 70
37 57 85 125 107 151 41 49 178 145 305 213 79 43 92 40 92 -21 0 -30 37 -174
59 -229 19 -48 22 -23 6 50 -45 206 -48 224 -37 249 11 24 16 25 92 25 44 0
80 4 80 10 0 10 -35 17 -130 24 -54 4 -68 9 -87 30 -12 14 -29 26 -37 26 -22
0 -48 55 -44 93 3 28 7 32 34 35 39 4 59 37 51 86 -5 29 0 42 24 72 16 20 29
42 29 49 0 7 9 24 21 39 27 34 76 35 116 2 16 -13 47 -29 70 -35 37 -10 45
-18 81 -84 22 -39 65 -100 96 -135 63 -70 76 -108 26 -70 -23 16 -33 19 -42
10 -14 -14 4 -62 33 -88 28 -25 25 -54 -6 -54 -14 0 -28 7 -31 15 -4 8 -10 15
-15 15 -16 0 -9 -26 16 -60 26 -35 34 -80 14 -80 -6 0 -45 18 -86 41 -41 23
-76 39 -78 37 -2 -2 17 -28 42 -58 76 -92 184 -261 178 -279 -4 -12 4 -21 27
-32 42 -18 98 -92 98 -129 0 -24 5 -29 28 -32 21 -2 32 -13 50 -48 25 -50 31
-140 9 -140 -22 0 -95 83 -117 132 -13 31 -32 54 -51 63 -17 9 -51 49 -83 98
-29 45 -77 109 -106 142 -30 33 -84 99 -122 146 -60 77 -98 112 -98 91 0 -4
18 -57 39 -118 22 -61 58 -187 81 -280 75 -309 80 -328 125 -419 26 -54 77
-132 129 -197 47 -59 97 -126 112 -150 15 -23 44 -63 64 -89 83 -106 165 -307
224 -550 67 -280 90 -327 178 -373 l53 -28 -62 57 c-51 46 -66 66 -78 108 -24
84 -48 292 -49 427 -1 106 2 131 19 165 25 49 45 53 129 25 125 -41 198 -109
278 -257 74 -138 78 -213 16 -312 -36 -59 -29 -85 14 -51 27 21 48 26 48 12 0
-5 -20 -40 -45 -78 -24 -38 -45 -73 -45 -78 0 -30 170 183 210 262 13 24 27
76 33 117 17 115 1 193 -71 339 -93 189 -169 297 -363 518 -234 265 -302 388
-450 811 -94 267 -238 582 -300 652 -38 43 -72 62 -148 81 -31 8 -63 21 -71
29 -12 13 -9 15 32 15 87 0 163 -40 278 -147 159 -147 296 -363 357 -563 127
-420 163 -515 237 -630 46 -70 184 -223 219 -242 33 -17 38 5 11 52 -68 120
-230 464 -294 625 -40 99 -83 201 -96 227 -27 54 -30 68 -11 68 21 0 77 -60
125 -135 52 -81 90 -125 109 -125 7 0 21 -17 32 -37 22 -43 113 -133 184 -182
27 -18 126 -70 220 -115 95 -46 180 -92 189 -102 53 -60 123 -248 194 -519 25
-99 66 -243 90 -319 24 -77 44 -157 44 -178 0 -97 -226 -453 -368 -579 -26
-23 -83 -66 -127 -95 -44 -30 -98 -67 -120 -83 -22 -16 -78 -50 -125 -75 l-85
-47 -115 55 c-69 33 -145 62 -189 71 -224 46 -315 79 -325 118 -4 18 -20 30
-60 47 -41 16 -57 29 -67 52 -7 17 -32 64 -55 105 -23 41 -52 100 -64 131 -55
145 -64 159 -265 382 -55 61 -117 139 -139 173 l-38 62 5 155 c3 85 4 151 2
145 -3 -5 -19 -59 -36 -120 -25 -84 -33 -130 -33 -195 -1 -108 14 -137 159
-321 58 -73 127 -168 151 -209 70 -115 186 -357 182 -377 -3 -14 -11 -7 -33
27 -122 191 -178 270 -186 265 -18 -12 -9 -42 31 -106 23 -35 52 -88 65 -116
14 -29 29 -53 35 -53 13 0 40 -54 40 -80 0 -13 9 -24 25 -30 13 -5 42 -21 64
-36 33 -21 49 -25 83 -21 102 11 263 -34 513 -144 92 -40 132 -53 172 -54 29
0 57 -5 64 -12 6 -6 23 -85 39 -176 40 -236 63 -320 136 -507 36 -91 70 -174
75 -185 5 -11 60 -76 121 -145 60 -69 119 -145 130 -170 12 -25 76 -165 144
-312 67 -147 135 -300 151 -339 15 -38 42 -88 60 -109 19 -21 40 -54 49 -72
15 -32 15 -31 10 50 -2 45 0 82 5 82 5 0 16 -16 24 -37 22 -53 31 -32 10 24
-10 27 -95 199 -187 383 -162 321 -173 339 -255 433 -116 131 -142 168 -143
195 0 12 -7 25 -15 28 -33 13 -126 202 -184 371 -42 126 -92 349 -98 443 l-6
95 149 95 c355 227 449 325 603 632 82 163 85 187 38 333 -20 61 -52 174 -72
253 -74 295 -177 570 -251 669 -25 33 -189 123 -225 123 -32 0 -112 46 -190
108 -109 88 -156 134 -270 267 -181 210 -450 506 -559 615 -172 172 -254 215
-386 203 -75 -7 -97 4 -120 61 -16 38 -22 43 -48 42 -32 -1 -40 10 -82 112
-10 25 -57 86 -111 144 -117 127 -157 202 -159 298 -1 78 -19 116 -98 212 -71
85 -131 121 -244 142 -48 9 -98 19 -112 22 -20 4 -35 -5 -75 -47z m68 -76 c-6
-18 -17 -28 -29 -28 -27 0 -28 27 -3 54 27 29 45 15 32 -26z m201 23 c39 -16
48 -46 22 -81 -12 -16 -18 -17 -62 -6 -27 7 -68 21 -91 31 -38 17 -43 23 -43
51 l0 32 69 -6 c37 -3 85 -12 105 -21z m130 -158 c50 -108 116 -305 116 -343
0 -36 -30 -82 -48 -71 -6 3 -13 20 -17 37 -5 23 -3 34 11 44 17 12 16 15 -21
52 -77 75 -147 353 -88 353 8 0 28 -31 47 -72z m-554 29 c0 -52 -58 -110 -119
-118 -44 -7 -34 20 33 87 65 65 86 73 86 31z m108 -3 c8 5 12 0 12 -13 0 -11
-5 -23 -12 -27 -14 -9 -38 23 -38 50 0 19 1 19 13 1 8 -10 19 -15 25 -11z
m293 -41 c38 -54 74 -162 60 -176 -11 -11 -48 42 -57 83 -4 14 -19 49 -35 77
-33 61 -34 63 -14 63 8 0 28 -21 46 -47z m-186 -4 c9 -14 -24 -49 -47 -49 -22
0 -23 18 -1 42 18 20 38 23 48 7z m127 -93 c38 -76 88 -150 167 -246 33 -41
61 -80 61 -87 0 -7 -20 -27 -44 -46 l-45 -34 42 -45 c60 -64 97 -94 97 -79 0
8 -23 36 -51 65 l-50 51 21 17 c33 27 50 22 97 -24 50 -49 56 -39 12 21 -17
24 -28 49 -25 57 10 27 41 13 77 -35 31 -43 53 -83 114 -211 7 -14 10 -31 8
-38 -14 -37 27 -51 42 -15 6 17 -45 128 -119 258 -51 88 -55 105 -27 105 28 0
109 -94 173 -201 31 -52 71 -107 89 -124 95 -88 99 -94 99 -143 0 -39 -8 -58
-42 -110 -24 -34 -51 -65 -61 -68 -34 -11 -66 5 -73 34 -10 47 -55 151 -72
164 -13 11 -15 10 -10 -4 8 -21 -15 -53 -33 -46 -8 3 -22 37 -32 76 -18 71
-37 99 -57 87 -7 -5 -4 -18 9 -41 11 -19 18 -34 15 -34 -5 0 -100 62 -130 85
-15 11 -29 1 -19 -15 3 -6 32 -29 63 -52 116 -84 156 -137 116 -152 -25 -10
-112 -7 -119 4 -13 21 -35 10 -35 -19 0 -15 -10 -41 -21 -56 -20 -25 -21 -34
-15 -121 l6 -94 -107 1 c-154 1 -184 14 -169 72 6 24 11 27 46 27 46 0 104 43
114 85 4 15 17 30 31 35 32 12 32 25 -2 47 -16 9 -34 23 -40 32 -13 15 -18 71
-7 71 4 0 36 -11 73 -24 36 -13 89 -27 116 -30 58 -9 62 -14 -60 89 -123 105
-124 105 -47 20 39 -44 68 -81 63 -83 -13 -4 -60 21 -154 81 -83 53 -98 73
-135 180 -32 90 -90 176 -171 255 -41 40 -89 94 -106 120 -16 26 -39 48 -50
50 -42 7 -48 11 -35 27 17 21 53 19 111 -7 40 -17 59 -33 91 -80 22 -33 93
-112 159 -177 65 -65 119 -125 119 -133 0 -19 30 -32 42 -20 5 5 4 21 -2 36
-5 15 -10 45 -10 66 0 51 -11 78 -56 137 -20 26 -54 84 -76 128 -34 71 -38 86
-34 135 2 30 5 57 5 59 3 13 37 -32 63 -83z m-211 -14 c74 -47 119 -92 146
-146 14 -28 39 -70 55 -94 17 -24 28 -45 25 -48 -8 -8 -287 294 -287 312 0 10
19 2 61 -24z m-231 -55 c0 -14 -20 -37 -32 -37 -12 0 -10 24 4 38 16 16 28 15
28 -1z m-100 -49 c0 -27 -35 -76 -46 -65 -4 4 -2 25 5 47 13 43 41 55 41 18z
m14 -288 c27 -10 55 -55 43 -67 -4 -4 -20 6 -35 20 -33 32 -42 34 -42 9 0 -28
-9 -32 -45 -16 -33 13 -35 13 -85 -27 -57 -45 -78 -42 -60 7 14 35 38 64 65
75 28 11 129 11 159 -1z m226 -52 c58 -28 112 -55 120 -59 19 -9 15 -47 -8
-72 -23 -26 -62 -18 -140 27 -65 39 -112 94 -112 133 0 34 22 29 140 -29z
m-5150 -142 c0 -49 -7 -61 -27 -45 -16 14 -17 53 -2 80 15 29 29 13 29 -35z
m5387 9 c3 -9 -2 -24 -11 -34 -19 -21 -23 -62 -4 -43 22 22 63 13 102 -20 29
-26 39 -43 43 -75 3 -26 2 -43 -4 -43 -13 0 -81 46 -114 76 -14 14 -50 37 -80
53 -30 15 -55 35 -57 44 -7 37 111 77 125 42z m-5651 -80 c4 -15 1 -32 -6 -40
-11 -14 -15 -14 -31 1 -19 17 -25 45 -12 57 15 16 43 6 49 -18z m-61 -75 c0
-22 -29 -18 -33 3 -3 14 1 18 15 15 10 -2 18 -10 18 -18z m-206 -66 c11 -39
-2 -90 -19 -79 -13 8 -13 115 0 115 5 0 14 -16 19 -36z m5702 -51 c63 -59 119
-135 119 -161 0 -11 -7 -28 -16 -37 -15 -15 -18 -15 -36 2 -27 24 -137 243
-122 243 3 0 27 -21 55 -47z m790 -23 c20 -33 47 -59 77 -77 89 -50 100 -73
38 -73 -48 0 -70 -28 -61 -79 8 -46 3 -49 -50 -27 -22 10 -37 24 -41 40 -6 27
-21 33 -84 38 l-34 3 -12 85 c-7 47 -10 88 -8 92 3 5 16 5 28 2 17 -4 31 2 51
20 41 38 61 33 96 -24z m-5927 -17 c2 -10 8 -34 11 -53 4 -19 18 -57 32 -83
43 -86 12 -154 -39 -86 -23 31 -44 151 -34 202 7 39 21 49 30 20z m5726 -61
c0 -49 -23 -97 -42 -86 -17 11 -39 74 -33 95 7 20 55 50 67 42 5 -2 8 -25 8
-51z m-330 28 c11 -7 9 -11 -13 -19 -43 -17 -116 5 -74 22 21 9 71 7 87 -3z
m-5950 -97 c0 -10 15 -42 34 -73 40 -66 48 -90 36 -110 -7 -12 -12 -11 -31 5
-28 26 -79 115 -79 138 0 23 18 57 30 57 6 0 10 -8 10 -17z m329 -103 c40 -78
51 -108 44 -119 -18 -28 -35 -17 -70 44 -55 98 -75 193 -39 182 6 -1 35 -50
65 -107z m714 19 c32 -62 39 -88 44 -154 4 -68 1 -92 -21 -160 -15 -44 -34
-125 -42 -180 -9 -55 -23 -110 -31 -123 -11 -18 -12 -30 -4 -54 17 -47 13 -93
-9 -121 -11 -14 -20 -32 -20 -41 0 -40 -46 -6 -89 66 -25 43 -48 53 -99 43
-60 -11 -109 -41 -120 -74 -15 -42 -1 -46 34 -10 57 61 118 75 155 38 19 -19
21 -30 16 -81 -3 -32 -11 -65 -17 -73 -14 -17 -105 -21 -115 -5 -13 21 -45 8
-76 -29 -38 -48 -72 -63 -129 -59 -39 3 -46 7 -67 43 -47 79 -63 121 -63 167
0 48 14 72 50 83 24 8 26 21 5 29 -9 3 -29 34 -44 68 -16 35 -63 106 -105 158
-42 52 -76 100 -76 105 0 15 21 35 37 35 22 0 102 -119 154 -230 37 -78 61
-116 96 -148 l46 -43 28 27 27 26 12 -22 c22 -40 35 -17 35 61 0 91 19 129 65
129 38 0 46 -15 25 -46 -9 -14 -14 -28 -11 -31 11 -11 33 17 44 56 21 68 53
65 108 -10 20 -27 37 -49 39 -49 1 0 -4 31 -12 69 -14 70 -14 70 17 142 17 40
48 99 70 132 22 32 40 62 40 66 0 3 -16 36 -35 73 -36 72 -51 141 -41 184 11
43 38 24 79 -57z m4807 62 c0 -25 -39 -74 -40 -49 0 22 21 68 32 68 4 0 8 -9
8 -19z m-6168 -50 c-2 -12 4 -33 12 -46 25 -39 15 -148 -11 -121 -10 9 -33
178 -26 189 10 16 28 0 25 -22z m960 -118 c21 -24 34 -70 53 -182 9 -51 23
-111 32 -132 16 -42 12 -69 -10 -69 -14 0 -120 270 -133 337 -10 54 26 82 58
46z m2582 -38 c125 -27 199 -52 190 -66 -3 -5 -17 -9 -33 -9 -15 0 -50 -15
-79 -32 -92 -58 -240 -168 -246 -184 -5 -12 -14 -14 -37 -9 l-32 7 8 -38 c4
-21 12 -49 19 -62 l13 -24 20 26 c26 32 33 33 33 2 0 -38 10 -56 41 -72 16 -8
28 -20 26 -26 -3 -18 78 -36 168 -37 135 -2 173 32 201 176 27 141 22 131 45
94 18 -30 24 -32 53 -27 38 7 56 -8 75 -63 17 -53 14 -89 -11 -112 -45 -40
-191 -131 -235 -146 -42 -15 -46 -14 -101 10 -68 30 -137 39 -137 18 0 -8 13
-18 28 -22 15 -4 59 -24 97 -43 38 -20 92 -39 121 -44 l52 -7 -42 -52 c-23
-29 -58 -61 -79 -72 -52 -26 -143 -44 -156 -31 -13 13 1 27 67 66 72 42 72 69
-2 107 -66 33 -106 35 -121 7 -9 -17 -7 -24 12 -40 34 -27 16 -35 -36 -15 -62
24 -75 13 -154 -118 -62 -103 -65 -105 -91 -96 -58 20 -100 67 -118 131 -14
48 -25 66 -58 94 -43 35 -84 98 -72 110 4 4 34 -18 67 -50 67 -64 111 -86 171
-86 47 0 105 30 114 60 3 11 -1 40 -9 65 -9 25 -16 60 -16 79 0 18 -7 56 -16
85 -13 45 -21 55 -52 68 -84 37 -307 10 -333 -39 -14 -26 -5 -85 17 -109 28
-31 11 -46 -20 -16 -43 44 -68 111 -74 204 l-5 83 35 15 c33 13 57 37 101 99
11 16 27 26 42 26 60 0 322 100 340 130 10 17 89 11 209 -15z m-3378 -133 c9
-44 -1 -50 -32 -21 -41 38 -57 75 -43 101 12 22 12 22 40 -12 16 -19 32 -49
35 -68z m320 73 c7 -27 -10 -55 -33 -55 -18 0 -27 24 -19 55 9 34 43 34 52 0z
m6243 -16 c-7 -14 -14 -18 -21 -11 -13 13 -2 32 18 32 12 0 13 -4 3 -21z
m-6197 -71 c-15 -15 -26 -4 -18 18 5 13 9 15 18 6 9 -9 9 -15 0 -24z m266 -30
c10 -24 25 -61 32 -83 14 -45 58 -133 90 -182 24 -37 10 -55 -21 -27 -40 36
-126 216 -144 302 -10 48 18 42 43 -10z m-515 -20 c42 -22 106 -80 113 -101 3
-12 20 -35 36 -52 33 -34 145 -175 183 -231 25 -37 33 -74 16 -74 -6 0 -48 44
-95 98 -47 54 -106 110 -130 126 -36 23 -48 38 -61 77 -11 33 -29 59 -52 77
-30 23 -63 69 -63 87 0 9 30 6 53 -7z m282 -170 c65 -61 103 -114 90 -126 -8
-8 -147 134 -164 167 -21 38 6 23 74 -41z m3193 -16 c5 -34 -22 -68 -63 -82
-47 -16 -67 0 -63 49 4 42 34 63 88 59 28 -2 36 -8 38 -26z m382 -129 c0 -7
-7 -13 -15 -13 -10 0 -15 10 -15 33 1 30 1 31 15 13 8 -11 15 -26 15 -33z
m-939 -70 c13 -34 1 -57 -30 -61 -28 -4 -51 14 -51 42 0 51 63 65 81 19z m789
-68 c15 -18 9 -50 -9 -50 -19 0 -36 29 -28 49 8 20 21 21 37 1z m225 -19 c8
-42 -9 -157 -40 -276 -42 -155 -73 -197 -188 -250 l-67 -32 -45 41 c-25 23
-49 41 -53 41 -5 0 -21 9 -35 20 -32 25 -25 50 13 50 15 0 38 8 51 19 13 10
39 22 56 25 18 4 37 15 43 24 8 15 9 14 10 -4 0 -26 -23 -47 -79 -73 l-45 -19
38 -8 c43 -8 132 9 163 31 17 12 21 28 25 98 5 103 34 163 91 190 20 9 37 20
37 25 0 4 -7 28 -17 54 -14 39 -14 49 -4 62 21 26 40 18 46 -18z m-255 -52
c34 -29 29 -48 -11 -42 -34 5 -61 68 -29 68 5 0 23 -12 40 -26z m110 -33 c0
-30 -19 -73 -42 -98 -48 -51 -51 -11 -6 64 34 56 48 66 48 34z m-2808 -61 c9
-30 19 -68 23 -83 4 -21 10 -27 24 -22 15 4 17 1 13 -26 -3 -19 0 -34 8 -39
10 -6 13 -35 11 -107 -2 -81 0 -96 11 -85 7 7 18 34 23 59 10 46 31 67 40 41
2 -7 9 -32 15 -55 6 -26 17 -43 25 -43 23 0 18 -66 -10 -135 -35 -84 -33 -104
7 -68 17 15 18 15 18 -10 0 -15 4 -27 10 -27 13 0 23 44 18 80 -6 37 9 40 18
4 11 -44 -2 -147 -25 -192 -12 -23 -24 -42 -27 -42 -3 0 -4 26 -2 58 2 48 0
57 -13 54 -9 -1 -24 7 -34 17 -14 16 -17 33 -13 90 l4 69 -23 -24 c-45 -49
-85 -13 -58 52 8 20 15 38 15 40 0 11 -22 1 -39 -17 -24 -26 -48 -19 -53 13
-2 17 -9 22 -26 21 -14 -2 -22 3 -22 12 0 10 -12 14 -44 13 -33 0 -67 11 -137
45 -52 25 -107 49 -124 54 -26 7 -75 62 -75 83 0 13 43 20 127 20 89 0 125 10
162 43 48 44 101 119 101 144 0 18 5 24 18 21 11 -2 23 -22 34 -58z m2639 50
c28 -15 24 -37 -15 -76 -37 -37 -70 -44 -80 -18 -10 27 11 43 45 34 34 -10 36
-7 9 27 -11 14 -20 30 -20 34 0 12 37 11 61 -1z m-422 -65 c17 -20 31 -38 31
-40 0 -2 -12 -16 -26 -30 -20 -20 -24 -32 -19 -55 4 -18 2 -30 -3 -30 -13 0
-32 87 -32 145 0 25 4 45 9 45 5 0 23 -16 40 -35z m4281 0 c7 -9 10 -18 7 -21
-10 -11 -37 5 -37 21 0 19 14 19 30 0z m-3987 -48 c3 -8 1 -20 -4 -28 -11 -19
-34 3 -26 25 8 20 23 21 30 3z m-2667 -22 c-26 -19 -42 -19 -26 0 7 8 20 15
29 15 13 -1 13 -3 -3 -15z m2804 -30 c-10 -12 -15 -13 -21 -3 -11 17 11 42 24
29 7 -7 6 -15 -3 -26z m548 -58 c4 -81 -21 -173 -60 -214 -26 -27 -32 -25 -19
9 5 14 17 83 26 154 9 70 19 132 22 137 13 21 28 -20 31 -86z m-758 68 c16
-19 6 -45 -18 -45 -25 0 -46 25 -38 45 7 19 40 19 56 0z m-98 -22 c22 -19 24
-43 3 -43 -14 0 -35 29 -35 49 0 16 11 14 32 -6z m-2847 -68 c-9 -52 -68 -203
-110 -280 -18 -33 -36 -76 -40 -95 -4 -19 -25 -75 -47 -125 -33 -74 -39 -98
-35 -134 5 -42 70 -181 230 -486 74 -140 121 -264 149 -390 17 -77 21 -139 24
-420 l5 -330 -21 24 c-46 54 -65 174 -85 550 -8 152 -19 301 -24 331 -21 127
-116 320 -245 501 -110 155 -125 212 -90 344 30 117 189 478 245 556 21 30 23
31 36 13 9 -13 12 -32 8 -59z m3100 40 c0 -5 -15 -11 -32 -13 -32 -3 -45 11
-20 22 19 8 52 2 52 -9z m175 7 c0 -5 -9 -17 -20 -27 -19 -18 -20 -17 -20 2 0
11 3 23 7 26 9 10 33 9 33 -1z m286 -64 c-4 -35 -11 -103 -14 -153 l-7 -90
-64 -32 c-35 -18 -74 -33 -86 -33 -24 0 -86 38 -92 56 -4 12 85 54 115 54 10
0 34 10 53 23 26 17 35 31 37 57 6 78 37 180 55 180 6 0 7 -22 3 -62z m-728 5
c17 -13 32 -31 32 -39 0 -24 -37 -16 -75 17 -66 59 -31 77 43 22z m-2604 -173
c3 -16 11 -30 19 -30 31 0 128 -128 120 -159 -4 -15 5 -24 36 -40 31 -16 41
-28 46 -54 8 -42 -10 -246 -24 -260 -13 -13 -51 64 -85 173 -15 46 -32 90 -37
97 -6 7 -8 17 -4 22 3 6 -3 23 -14 38 -21 28 -81 198 -81 227 0 28 17 17 24
-14z m-64 -237 c0 -12 -4 -23 -10 -23 -14 0 -42 58 -34 71 10 16 44 -21 44
-48z m-125 -131 c8 -28 -15 -39 -32 -16 -11 14 -13 37 -10 80 7 91 21 102 29
22 3 -37 9 -76 13 -86z m1943 86 c-3 -7 -19 -21 -36 -31 -47 -28 -219 -87
-251 -87 -66 0 -89 -53 -91 -210 -1 -102 -7 -109 -56 -57 -74 77 -73 72 -21
122 33 31 48 54 52 82 4 21 8 43 10 50 5 16 66 47 168 84 146 54 233 72 225
47z m-1759 -143 c12 -31 21 -62 21 -70 0 -22 -18 -18 -30 6 -15 26 -29 119
-19 119 4 0 17 -25 28 -55z m313 -40 c4 -16 28 -47 53 -70 53 -49 57 -75 22
-145 l-22 -45 -3 65 c-4 65 -4 65 -16 31 -13 -36 -40 -61 -52 -48 -4 4 0 31 9
61 9 29 17 61 17 72 -1 17 -2 17 -20 -5 -11 -13 -20 -29 -20 -36 0 -16 -27
-38 -38 -31 -11 6 16 154 31 174 15 19 30 10 39 -23z m-275 -117 c-3 -7 -5 -2
-5 12 0 14 2 19 5 13 2 -7 2 -19 0 -25z m1283 -160 c57 -93 103 -368 61 -368
-14 0 -30 51 -40 130 -5 43 -24 114 -44 165 -19 49 -33 93 -31 97 11 17 35 6
54 -24z m-1176 -93 c7 -20 -4 -47 -18 -42 -17 6 -20 57 -3 57 8 0 17 -7 21
-15z m6433 -432 c9 -22 -2 -26 -56 -18 -63 9 -101 35 -83 58 12 14 20 13 73
-5 33 -11 63 -27 66 -35z m-6462 -863 c7 -23 -10 -50 -31 -50 -14 0 -20 51 -7
63 13 13 32 7 38 -13z m459 -313 c19 -26 19 -27 0 -48 -20 -22 -85 -59 -104
-59 -21 0 -6 55 15 58 32 6 45 22 45 54 0 35 15 33 44 -5z"/>
<path d="M6520 11912 c0 -17 41 -62 56 -62 12 0 12 4 -2 25 -18 27 -54 52 -54
37z"/>
<path d="M6685 11849 c-4 -6 0 -18 9 -27 15 -15 16 -15 16 5 0 25 -15 38 -25
22z"/>
<path d="M6891 11386 c-11 -13 -11 -20 -3 -28 8 -8 13 -7 18 5 10 27 0 41 -15
23z"/>
<path d="M3093 10858 c-18 -6 -33 -14 -33 -18 0 -10 92 8 104 20 13 13 -28 12
-71 -2z"/>
<path d="M1362 10166 c-10 -24 -10 -33 3 -52 19 -29 19 -45 1 -38 -21 8 -56
-14 -56 -35 0 -10 9 -26 20 -36 26 -23 43 -9 64 52 20 58 20 79 2 86 -8 3 -16
16 -18 29 -4 22 -5 22 -16 -6z"/>
<path d="M1200 10116 c0 -22 19 -30 35 -16 22 18 18 30 -10 30 -15 0 -25 -6
-25 -14z"/>
<path d="M3070 11724 c0 -3 18 -37 40 -75 46 -78 99 -124 205 -174 71 -34 171
-62 182 -51 19 18 -156 146 -229 168 -21 6 -44 20 -49 30 -5 10 -16 18 -24 18
-8 0 -37 20 -65 45 -50 44 -60 51 -60 39z"/>
<path d="M3984 11625 c-41 -63 13 -236 108 -351 102 -122 343 -516 380 -623
11 -30 32 -66 48 -81 38 -35 103 -169 147 -298 33 -99 35 -113 30 -192 -3 -47
-16 -121 -30 -165 -34 -112 -2 -113 59 -2 28 49 29 58 29 172 -1 108 -4 129
-32 212 -37 105 -133 302 -188 383 -53 78 -80 134 -105 220 -43 145 -106 283
-239 524 -109 199 -170 258 -207 201z m148 -227 c101 -193 127 -253 114 -265
-23 -23 -226 349 -226 414 0 18 4 33 8 33 5 0 52 -82 104 -182z"/>
<path d="M5853 11575 c-3 -9 -3 -18 0 -21 9 -9 27 6 27 22 0 19 -19 18 -27 -1z"/>
<path d="M4212 11534 c1 -9 9 -19 16 -22 9 -3 13 2 10 14 -1 9 -9 19 -16 22
-9 3 -13 -2 -10 -14z"/>
<path d="M5808 11513 c-9 -10 -23 -35 -32 -57 -9 -21 -29 -54 -46 -73 -104
-118 -155 -349 -115 -518 7 -33 10 -64 6 -68 -5 -4 -23 5 -42 20 -46 39 -36
18 61 -131 43 -68 88 -148 100 -178 11 -29 48 -98 82 -153 72 -118 181 -341
231 -475 33 -89 48 -139 77 -265 48 -211 267 -487 551 -698 230 -170 362 -248
399 -235 15 5 -28 88 -45 88 -9 0 -98 80 -199 178 -100 98 -225 213 -277 256
-175 147 -235 214 -303 337 -58 106 -77 172 -85 294 -4 75 -10 110 -18 110
-20 0 -30 17 -53 85 -32 96 -128 275 -240 445 -134 203 -181 317 -216 526 -9
55 -14 116 -11 135 9 56 53 141 134 262 50 74 73 116 66 123 -6 6 -15 3 -25
-8z"/>
<path d="M4870 11512 c0 -5 25 -40 55 -78 63 -79 168 -281 189 -367 38 -147
41 -299 20 -818 -7 -154 -1 -229 16 -229 29 0 140 562 140 713 0 181 -89 441
-204 594 -61 81 -216 214 -216 185z"/>
<path d="M5406 10643 c3 -98 7 -225 11 -283 6 -97 7 -102 15 -60 10 46 3 411
-8 482 -14 87 -22 27 -18 -139z"/>
<path d="M8202 10794 c1 -9 9 -19 16 -22 9 -3 13 2 10 14 -1 9 -9 19 -16 22
-9 3 -13 -2 -10 -14z"/>
<path d="M7001 10735 c-79 -43 -98 -60 -106 -95 -7 -30 -27 -51 -92 -94 -23
-15 -49 -43 -58 -62 -9 -20 -23 -38 -30 -41 -40 -15 -242 -400 -221 -420 9
-10 316 371 316 392 0 8 34 51 76 95 41 45 82 97 90 116 8 20 35 49 64 70 104
74 76 101 -39 39z"/>
<path d="M7164 10713 c4 -16 9 -55 12 -88 l6 -61 -147 -219 c-253 -378 -283
-457 -237 -635 26 -99 42 -88 69 45 16 78 35 136 68 202 25 51 45 96 45 100 0
4 11 16 25 28 16 12 42 61 69 125 58 142 127 290 136 290 12 0 70 -232 70
-277 0 -23 -12 -90 -26 -150 -31 -128 -42 -282 -25 -358 12 -55 48 -105 76
-105 28 0 34 43 24 189 -9 121 -8 145 5 168 9 16 21 40 28 56 22 49 33 42 177
-122 58 -65 101 -123 101 -135 2 -111 23 -341 40 -421 50 -242 114 -389 156
-354 11 9 14 41 14 146 0 103 3 134 13 131 12 -5 24 -46 50 -178 23 -113 53
-183 104 -240 56 -62 133 -118 133 -96 0 8 -28 34 -62 58 -85 60 -111 109
-147 287 -39 185 -98 405 -124 456 -36 73 -149 234 -256 366 -58 72 -121 151
-139 177 -18 25 -48 62 -65 81 -28 31 -40 64 -85 234 -70 261 -91 327 -104
327 -6 0 -8 -11 -4 -27z"/>
<path d="M8240 10715 c0 -23 200 -411 259 -502 50 -79 71 -99 71 -70 0 15 -82
152 -109 182 -10 11 -22 33 -25 49 -4 17 -16 42 -26 56 -28 40 -120 231 -120
250 0 16 -29 50 -43 50 -4 0 -7 -7 -7 -15z"/>
<path d="M8430 10512 c0 -4 23 -35 50 -67 28 -33 53 -71 57 -85 8 -37 57 -123
128 -225 34 -49 91 -139 126 -200 56 -96 64 -106 67 -82 3 21 -10 48 -46 100
-45 66 -122 206 -122 223 0 4 11 -3 25 -16 34 -32 33 -8 -3 52 -76 132 -282
350 -282 300z"/>
<path d="M1570 10410 c0 -9 32 -30 46 -30 4 0 -1 9 -11 20 -19 21 -35 26 -35
10z"/>
<path d="M5362 10393 c-1 -7 -13 -92 -27 -190 -44 -302 -78 -431 -135 -502
-39 -48 -36 -80 3 -37 49 53 86 144 112 277 33 170 57 359 52 417 -2 26 -4 42
-5 35z"/>
<path d="M5398 10167 c-12 -29 -10 -83 3 -70 6 6 9 28 7 49 -2 29 -5 34 -10
21z"/>
<path d="M6276 10108 c-31 -34 -59 -72 -62 -84 -8 -30 26 -93 138 -260 122
-181 244 -344 353 -469 88 -101 126 -160 118 -182 -3 -8 5 -13 21 -13 34 0 66
-32 59 -60 -4 -13 6 -38 29 -73 19 -29 43 -68 53 -87 11 -20 20 -29 23 -22 2
8 25 -7 62 -42 62 -59 85 -64 96 -20 8 32 18 30 45 -8 12 -18 24 -35 26 -37 1
-2 12 4 23 14 27 24 25 54 -6 86 -17 17 -30 48 -39 92 -24 115 -105 268 -233
441 l-66 88 -20 -28 c-12 -16 -31 -40 -44 -54 -21 -23 -23 -24 -33 -7 -6 10
-34 48 -62 85 -138 182 -173 231 -263 363 -122 181 -149 236 -140 295 8 62
-10 58 -78 -18z m661 -895 c8 -20 9 -33 3 -33 -14 0 -60 95 -60 122 1 19 5 16
22 -17 12 -22 27 -55 35 -72z m99 -178 c55 -77 124 -196 124 -212 0 -54 -103
55 -160 169 -42 85 -54 142 -24 117 9 -7 35 -41 60 -74z"/>
<path d="M8606 10080 c7 -25 33 -70 40 -70 13 0 0 40 -22 65 -24 29 -25 29
-18 5z"/>
<path d="M6250 9716 c0 -9 7 -16 16 -16 9 0 14 5 12 12 -6 18 -28 21 -28 4z"/>
<path d="M7536 9657 c-12 -44 -6 -249 10 -325 40 -199 87 -320 162 -426 61
-85 121 -136 159 -136 36 0 28 23 -30 92 -160 190 -239 390 -267 681 -13 126
-22 158 -34 114z"/>
<path d="M6344 9575 c12 -33 66 -119 102 -161 28 -33 33 -36 34 -18 0 11 -15
38 -34 60 -18 21 -36 48 -40 60 -3 11 -20 34 -38 50 -25 23 -30 25 -24 9z"/>
<path d="M5965 9520 c-21 -34 317 -481 510 -675 159 -160 267 -255 288 -255
21 0 385 -362 457 -454 68 -88 70 -99 23 -170 -38 -59 -43 -87 -28 -161 34
-162 151 -318 529 -704 395 -405 617 -659 745 -856 39 -60 119 -204 177 -318
58 -115 108 -206 111 -203 3 3 -5 38 -17 78 -104 346 -369 729 -835 1208 -221
227 -442 473 -522 580 -79 107 -134 214 -141 275 -5 45 -3 48 38 86 l42 39 -4
63 c-5 82 -26 121 -128 231 -136 146 -275 269 -425 377 -181 129 -291 227
-420 369 -132 146 -222 260 -300 380 -67 103 -89 128 -100 110z"/>
<path d="M5853 9505 c-3 -9 -3 -18 0 -21 9 -9 27 6 27 22 0 19 -19 18 -27 -1z"/>
<path d="M6520 9343 c0 -7 13 -27 30 -45 16 -18 30 -27 30 -21 0 7 -13 27 -30
45 -16 18 -30 27 -30 21z"/>
<path d="M5920 9300 c0 -49 66 -219 162 -413 96 -194 160 -299 298 -487 38
-52 101 -141 141 -198 66 -96 92 -123 105 -109 9 8 -15 47 -62 103 -23 27 -78
104 -122 170 -43 65 -102 150 -131 187 -28 38 -71 103 -96 146 -69 120 -210
416 -245 516 -34 97 -50 124 -50 85z"/>
<path d="M3765 9288 c12 -38 114 -211 150 -253 28 -33 34 -36 35 -20 0 19
-174 295 -186 295 -3 0 -2 -10 1 -22z"/>
<path d="M3907 9209 c64 -113 437 -308 868 -456 155 -53 162 -55 240 -49 84 6
185 31 185 45 0 5 -53 11 -117 13 -99 5 -133 11 -208 37 -49 18 -98 33 -108
35 -10 1 -22 7 -25 13 -4 5 -25 16 -47 23 -82 27 -566 249 -619 284 -60 40
-153 86 -174 86 -10 0 -8 -8 5 -31z"/>
<path d="M6670 9201 c0 -11 40 -41 54 -41 5 0 -1 11 -14 25 -24 26 -40 32 -40
16z"/>
<path d="M8345 8850 c-11 -5 -35 -9 -54 -9 -25 -1 -43 -11 -72 -41 -22 -22
-37 -40 -34 -40 12 0 106 35 153 57 65 31 72 61 7 33z"/>
<path d="M2889 8805 c-20 -45 -20 -49 -4 -143 8 -53 17 -116 20 -140 7 -75 49
-100 61 -36 8 45 -2 288 -14 329 -14 48 -39 44 -63 -10z"/>
<path d="M4270 8811 c0 -16 30 -35 41 -24 6 6 1 13 -16 21 -14 6 -25 8 -25 3z"/>
<path d="M4385 8770 c-12 -19 27 -52 110 -90 44 -21 90 -41 103 -45 34 -10 26
11 -10 28 -18 8 -63 29 -100 47 -37 17 -74 40 -82 51 -9 14 -16 17 -21 9z"/>
<path d="M4860 8642 c0 -15 46 -52 63 -52 23 0 21 13 -6 38 -23 22 -57 30 -57
14z"/>
<path d="M7118 8625 c12 -25 50 -60 57 -53 3 2 -12 20 -31 39 -23 21 -33 26
-26 14z"/>
<path d="M3054 8596 c-18 -14 -18 -15 0 -22 22 -8 68 6 74 24 5 17 -49 16 -74
-2z"/>
<path d="M4740 8582 c0 -9 25 -33 48 -46 7 -4 12 -1 12 8 0 9 -13 22 -30 31
-16 9 -30 12 -30 7z"/>
<path d="M4080 8568 c0 -22 98 -106 211 -180 117 -77 243 -148 263 -148 6 0
54 -25 106 -56 97 -58 233 -118 252 -112 9 3 -259 173 -512 323 -63 38 -155
95 -204 127 -88 58 -116 69 -116 46z"/>
<path d="M7480 8536 c0 -15 24 -66 31 -66 12 0 11 6 -6 40 -13 26 -25 38 -25
26z"/>
<path d="M5272 8498 c3 -7 13 -15 22 -16 12 -3 17 1 14 10 -3 7 -13 15 -22 16
-12 3 -17 -1 -14 -10z"/>
<path d="M2254 8396 c-7 -18 32 -176 46 -190 5 -5 13 -7 16 -3 11 10 28 172
21 190 -8 22 -75 24 -83 3z"/>
<path d="M7311 8388 c21 -40 112 -169 116 -164 4 4 -63 117 -96 163 -21 29
-35 29 -20 1z"/>
<path d="M5180 8351 c0 -15 51 -51 63 -44 6 4 -2 16 -19 30 -31 24 -44 29 -44
14z"/>
<path d="M5499 8346 c17 -21 71 -50 71 -38 0 5 -19 19 -42 32 -33 18 -40 20
-29 6z"/>
<path d="M5591 8286 c-9 -10 -9 -16 -1 -21 17 -10 37 12 24 25 -8 8 -15 6 -23
-4z"/>
<path d="M1783 8242 c-45 -28 -57 -185 -23 -294 20 -64 71 -148 90 -148 17 0
11 89 -15 220 -33 163 -32 188 1 200 14 6 22 14 19 20 -7 12 -55 13 -72 2z"/>
<path d="M5715 8180 c25 -28 95 -73 102 -66 13 13 -53 67 -97 81 l-25 8 20
-23z"/>
<path d="M7460 8180 c0 -18 27 -65 46 -81 16 -13 17 -12 10 15 -12 49 -56 101
-56 66z"/>
<path d="M5520 8165 c0 -6 56 -35 67 -35 14 1 -39 40 -53 40 -8 0 -14 -2 -14
-5z"/>
<path d="M5850 8095 c0 -8 9 -19 20 -25 15 -8 20 -8 20 3 0 14 -19 37 -32 37
-4 0 -8 -7 -8 -15z"/>
<path d="M7720 8104 c0 -10 189 -294 196 -294 12 0 -79 157 -133 228 -52 68
-63 80 -63 66z"/>
<path d="M4950 8046 c0 -20 19 -31 32 -18 7 7 3 14 -11 21 -17 10 -21 9 -21
-3z"/>
<path d="M5930 8041 c0 -15 45 -46 215 -150 250 -153 255 -155 255 -137 0 22
-48 55 -195 135 -71 39 -157 91 -190 116 -58 43 -85 55 -85 36z"/>
<path d="M6690 8003 c0 -5 6 -18 14 -29 17 -22 35 -11 20 13 -12 19 -34 29
-34 16z"/>
<path d="M7570 7963 c0 -17 9 -41 21 -54 l20 -24 -5 33 c-3 18 -13 43 -21 55
-15 21 -15 21 -15 -10z"/>
<path d="M8301 7880 c-1 -71 6 -110 20 -110 13 0 10 68 -5 125 l-14 50 -1 -65z"/>
<path d="M6762 7906 c10 -19 270 -319 436 -503 68 -76 28 -12 -65 102 -242
300 -420 492 -371 401z"/>
<path d="M8140 7900 c0 -6 8 -25 17 -43 16 -29 18 -30 21 -10 2 12 -2 31 -8
42 -11 22 -30 28 -30 11z"/>
<path d="M7606 7848 c-19 -27 -20 -38 -3 -38 7 0 22 -17 32 -37 18 -35 19 -36
23 -14 5 34 -6 87 -22 100 -11 9 -18 7 -30 -11z"/>
<path d="M7440 7810 c0 -11 5 -20 10 -20 6 0 10 9 10 20 0 11 -4 20 -10 20 -5
0 -10 -9 -10 -20z"/>
<path d="M5890 7811 c0 -12 29 -35 36 -28 11 10 -5 37 -21 37 -8 0 -15 -4 -15
-9z"/>
<path d="M6436 7732 c-7 -12 42 -38 51 -28 5 4 -1 14 -11 22 -23 16 -33 18
-40 6z"/>
<path d="M7996 7673 c55 -101 203 -323 215 -323 5 0 2 15 -7 33 -24 45 -233
357 -240 357 -3 0 11 -30 32 -67z"/>
<path d="M6025 7700 c-10 -16 4 -50 21 -50 8 0 14 8 14 19 0 23 -25 47 -35 31z"/>
<path d="M8240 7704 c0 -28 206 -361 217 -351 7 7 -24 64 -72 132 -23 33 -61
94 -84 135 -44 78 -61 101 -61 84z"/>
<path d="M5073 7639 c64 -80 424 -385 612 -519 50 -36 149 -124 220 -196 91
-92 151 -143 201 -172 107 -62 154 -103 436 -376 280 -271 335 -339 423 -520
60 -122 116 -296 122 -376 5 -63 4 -66 -31 -109 -52 -63 -48 -74 18 -46 84 35
128 230 91 404 -33 156 -96 279 -208 401 -28 30 -82 97 -120 149 -85 116 -144
180 -174 192 -13 5 -23 15 -23 24 0 8 -18 24 -40 35 -22 11 -63 41 -91 66
-109 96 -336 281 -374 304 -22 13 -56 39 -76 59 -52 53 -430 321 -452 321 -5
0 -69 42 -141 93 -235 167 -360 257 -396 285 l-35 27 38 -46z"/>
<path d="M6626 7616 c6 -16 92 -84 132 -105 22 -12 23 -11 20 11 -2 15 -11 24
-25 26 -13 2 -23 7 -23 12 0 11 -84 70 -99 70 -6 0 -8 -7 -5 -14z"/>
<path d="M6450 7581 c0 -12 68 -43 83 -38 7 2 -4 14 -23 25 -37 23 -60 28 -60
13z"/>
<path d="M2366 7555 c-9 -9 -14 -20 -11 -25 7 -11 86 12 88 25 3 17 -59 17
-77 0z"/>
<path d="M6570 7507 c0 -19 74 -71 79 -55 4 12 -52 68 -69 68 -6 0 -10 -6 -10
-13z"/>
<path d="M2506 7443 c-9 -55 -8 -89 3 -77 13 13 25 114 13 114 -5 0 -12 -17
-16 -37z"/>
<path d="M6842 7458 c4 -13 34 -35 94 -70 16 -9 43 -26 61 -38 50 -34 47 -6
-4 31 -57 41 -135 89 -146 89 -5 0 -7 -6 -5 -12z"/>
<path d="M7830 7351 c0 -5 17 -24 37 -41 45 -40 59 -23 17 21 -27 28 -54 38
-54 20z"/>
<path d="M7320 7282 c0 -16 27 -45 39 -41 8 3 7 11 -4 27 -16 22 -35 30 -35
14z"/>
<path d="M2168 7263 c-27 -29 -47 -86 -68 -190 -23 -110 -24 -130 -5 -88 23
49 96 276 93 287 -2 5 -11 1 -20 -9z"/>
<path d="M7972 7212 c34 -40 108 -106 113 -100 6 6 -115 128 -127 128 -6 0 1
-13 14 -28z"/>
<path d="M6540 7201 c0 -5 14 -23 31 -40 52 -52 70 -36 20 18 -28 30 -51 40
-51 22z"/>
<path d="M7400 7193 c0 -12 45 -73 53 -73 12 0 -2 41 -21 63 -15 17 -32 23
-32 10z"/>
<path d="M8337 7136 c-4 -9 2 -21 11 -28 10 -7 28 -32 40 -56 27 -52 101 -152
113 -152 14 0 -8 46 -61 128 -60 94 -95 130 -103 108z"/>
<path d="M8590 7113 c0 -20 78 -163 114 -208 41 -52 38 -21 -5 45 -22 35 -51
87 -64 115 -24 56 -45 78 -45 48z"/>
<path d="M2210 7090 c0 -11 5 -20 10 -20 6 0 10 9 10 20 0 11 -4 20 -10 20 -5
0 -10 -9 -10 -20z"/>
<path d="M6660 7087 c0 -8 9 -22 21 -33 12 -10 29 -34 38 -53 16 -33 85 -80
98 -67 4 3 -12 22 -34 41 -23 19 -54 55 -70 80 -27 44 -53 59 -53 32z"/>
<path d="M8120 7055 c0 -19 67 -105 82 -105 15 0 8 17 -27 64 -31 40 -55 58
-55 41z"/>
<path d="M6820 6902 c0 -18 33 -52 51 -52 29 0 23 28 -11 45 -33 17 -40 18
-40 7z"/>
<path d="M8261 6875 c21 -36 56 -62 67 -51 6 7 -67 86 -80 86 -4 0 2 -16 13
-35z"/>
<path d="M6310 6875 c13 -14 26 -23 28 -20 7 7 -29 45 -41 45 -6 0 0 -11 13
-25z"/>
<path d="M8546 6829 c28 -57 101 -165 136 -206 19 -21 40 -53 47 -70 8 -18 17
-33 22 -33 24 0 2 47 -64 141 -41 57 -87 124 -103 148 -36 55 -64 69 -38 20z"/>
<path d="M8340 6779 c0 -10 78 -122 136 -195 9 -11 25 -36 35 -55 26 -48 24
-17 -2 34 -26 50 -60 103 -112 175 -36 50 -57 65 -57 41z"/>
<path d="M7016 6669 c10 -12 18 -24 16 -28 -2 -3 6 -12 16 -19 34 -22 36 5 3
38 -34 34 -65 42 -35 9z"/>
<path d="M8840 6670 c0 -14 48 -35 58 -26 8 9 -26 36 -45 36 -7 0 -13 -5 -13
-10z"/>
<path d="M7444 6563 c4 -38 9 -96 12 -130 3 -35 10 -66 16 -69 6 -4 8 4 5 22
-3 16 -9 77 -12 137 -4 59 -11 107 -17 107 -6 0 -7 -26 -4 -67z"/>
<path d="M7697 6603 c10 -26 35 -64 40 -60 6 7 -29 77 -39 77 -4 0 -4 -8 -1
-17z"/>
<path d="M7920 6604 c1 -14 69 -104 80 -104 18 0 11 50 -7 57 -10 3 -30 17
-45 31 -16 14 -28 22 -28 16z"/>
<path d="M7100 6574 c0 -15 27 -50 34 -43 4 3 -2 17 -13 30 -11 13 -20 19 -21
13z"/>
<path d="M7160 6488 c0 -33 16 -56 30 -42 8 8 8 18 -1 37 -15 33 -29 35 -29 5z"/>
<path d="M7766 6480 c15 -55 66 -180 76 -186 29 -18 -27 144 -66 191 -17 20
-17 19 -10 -5z"/>
<path d="M8800 6466 c0 -24 16 -43 27 -32 8 8 -6 56 -17 56 -6 0 -10 -11 -10
-24z"/>
<path d="M8046 6452 c26 -45 52 -77 58 -72 7 8 -54 100 -66 100 -5 0 -2 -13 8
-28z"/>
<path d="M9072 6395 c0 -16 2 -22 5 -12 2 9 2 23 0 30 -3 6 -5 -1 -5 -18z"/>
<path d="M8890 6351 c0 -22 20 -51 35 -51 22 0 18 13 -10 40 -14 13 -25 18
-25 11z"/>
<path d="M8660 6324 c0 -30 130 -214 152 -214 16 0 5 18 -66 115 -77 103 -86
113 -86 99z"/>
<path d="M7491 6273 c22 -59 134 -256 165 -291 52 -59 39 -19 -29 91 -35 56
-79 130 -97 165 -33 63 -58 85 -39 35z"/>
<path d="M8958 6233 c20 -38 42 -64 42 -48 0 13 -30 62 -46 76 -14 11 -13 6 4
-28z"/>
<path d="M9276 6173 c107 -379 108 -386 107 -558 -1 -243 -37 -429 -115 -598
-44 -98 -56 -153 -39 -185 9 -18 8 -25 -7 -40 -32 -32 -65 -220 -112 -638 -17
-154 -74 -279 -175 -379 -66 -67 -122 -88 -250 -93 -146 -6 -364 33 -470 83
-38 19 -117 48 -175 66 -88 27 -120 32 -198 31 -98 -1 -132 -7 -132 -23 0 -5
53 -9 120 -9 98 0 128 -4 158 -19 20 -10 69 -28 107 -41 81 -26 145 -57 145
-69 0 -4 37 -11 83 -14 111 -9 185 -30 296 -85 90 -45 99 -47 191 -50 l97 -4
21 34 c23 36 72 87 72 73 0 -4 -11 -23 -25 -41 -26 -34 -32 -54 -15 -54 30 0
157 226 208 370 39 112 50 189 57 410 7 212 18 318 45 433 11 45 19 111 18
147 -1 50 6 86 31 155 50 139 80 269 93 400 14 148 -3 307 -56 518 -30 119
-85 267 -100 267 -2 0 7 -39 20 -87z"/>
<path d="M9152 6227 c2 -15 7 -28 13 -28 16 -1 16 16 0 36 -15 19 -15 19 -13
-8z"/>
<path d="M8230 6222 c0 -7 18 -32 40 -55 22 -23 40 -36 40 -29 0 7 -18 32 -40
55 -22 23 -40 36 -40 29z"/>
<path d="M9050 6123 c21 -45 30 -53 30 -29 0 8 -11 28 -25 43 l-26 28 21 -42z"/>
<path d="M8360 6063 c0 -21 146 -211 163 -212 10 -1 5 7 -81 122 -68 92 -82
107 -82 90z"/>
<path d="M9110 6028 c1 -18 20 -42 53 -62 36 -24 34 -5 -4 39 -32 36 -49 44
-49 23z"/>
<path d="M8889 5968 c5 -13 38 -67 74 -121 36 -54 89 -145 117 -202 48 -100
62 -117 75 -96 6 11 -92 202 -148 286 -88 132 -140 191 -118 133z"/>
<path d="M9240 5983 c0 -6 5 -34 12 -62 9 -41 9 -56 -2 -75 -11 -21 -10 -31 4
-66 9 -22 16 -56 16 -75 0 -24 5 -35 15 -35 33 0 10 225 -30 298 -8 15 -14 22
-15 15z"/>
<path d="M7710 5907 c0 -7 10 -24 22 -37 27 -29 37 -10 14 25 -18 27 -36 33
-36 12z"/>
<path d="M9212 5895 c0 -16 2 -22 5 -12 2 9 2 23 0 30 -3 6 -5 -1 -5 -18z"/>
<path d="M7780 5811 c0 -23 104 -171 181 -256 122 -136 172 -231 156 -297 -10
-38 -50 -82 -105 -114 -32 -19 -42 -29 -30 -32 29 -6 76 27 118 81 81 109 68
146 -152 427 -131 167 -167 208 -168 191z"/>
<path d="M7470 5741 c0 -5 7 -14 15 -21 13 -10 15 -9 15 9 0 12 -6 21 -15 21
-8 0 -15 -4 -15 -9z"/>
<path d="M8606 5708 c10 -18 39 -62 66 -97 26 -35 48 -70 48 -77 0 -7 11 -26
25 -43 14 -16 41 -64 61 -105 40 -89 74 -276 74 -421 0 -105 9 -165 23 -165
14 0 2 276 -17 392 -15 90 -66 225 -128 333 -58 102 -139 215 -154 215 -12 0
-12 -6 2 -32z"/>
<path d="M8265 5549 c-4 -6 0 -18 9 -27 15 -15 16 -15 16 5 0 25 -15 38 -25
22z"/>
<path d="M9154 5485 c-7 -28 0 -55 15 -55 12 0 20 35 14 60 -7 28 -21 25 -29
-5z"/>
<path d="M5524 5472 c-47 -30 -73 -82 -94 -184 -23 -111 -46 -180 -90 -268
-43 -86 -77 -130 -100 -130 -24 0 -50 -47 -50 -89 0 -21 -7 -34 -21 -42 -20
-10 -21 -17 -15 -85 7 -84 15 -121 63 -289 31 -107 34 -128 28 -200 -3 -45 -2
-86 4 -94 15 -23 41 -5 41 29 0 39 17 38 35 -2 7 -18 25 -58 38 -88 13 -30 54
-95 91 -143 50 -68 66 -97 66 -122 0 -18 7 -38 15 -45 13 -11 16 -8 21 19 4
17 9 31 12 31 4 0 50 -29 103 -65 53 -36 100 -65 106 -65 17 0 50 -43 76 -100
20 -42 38 -63 78 -89 68 -44 287 -157 320 -165 14 -3 52 -24 85 -46 32 -22 62
-40 66 -40 20 0 353 -254 413 -315 103 -104 179 -246 226 -421 32 -118 33
-360 1 -460 -27 -88 -28 -136 -2 -188 23 -47 76 -113 84 -106 2 3 -13 43 -35
90 l-40 85 47 180 c59 225 63 306 21 402 -79 182 -151 314 -205 377 -104 123
-123 150 -117 164 4 10 -2 12 -25 7 -22 -5 -30 -3 -30 7 0 8 -16 20 -35 26
-19 7 -69 42 -112 78 -43 36 -88 70 -101 75 -29 11 -178 112 -274 185 -42 33
-104 76 -137 97 -32 20 -106 73 -164 116 -57 43 -115 81 -130 84 -14 4 -39 18
-55 32 -17 14 -33 25 -36 25 -12 0 -185 151 -225 196 -39 45 -111 180 -111
209 0 8 7 15 15 15 16 0 35 30 35 57 0 10 4 24 9 32 8 12 12 12 25 2 19 -16
41 -9 55 17 8 15 5 27 -14 55 -30 44 -31 57 -4 57 26 0 41 -8 174 -95 61 -40
119 -75 130 -79 11 -3 75 -59 142 -124 104 -100 124 -124 133 -162 34 -128 53
-181 87 -239 57 -96 193 -238 193 -201 0 5 -34 46 -75 91 -87 95 -135 182
-135 246 0 25 -5 43 -11 43 -8 0 -10 13 -6 38 5 30 3 40 -13 50 -11 7 -20 18
-20 25 0 17 -100 113 -190 184 -36 28 -137 98 -225 155 -162 106 -228 165
-266 240 -30 58 -25 97 20 159 21 30 46 71 54 91 8 20 25 41 36 48 14 7 21 21
21 41 0 17 6 37 14 44 13 13 29 53 86 206 11 30 29 65 40 77 27 29 83 29 135
1 22 -11 67 -27 100 -35 33 -8 79 -26 102 -40 l43 -25 -5 -52 c-10 -90 34
-115 75 -44 12 22 13 30 2 47 -6 11 -12 22 -12 25 0 14 46 1 124 -36 105 -49
272 -111 344 -128 28 -7 52 -17 52 -21 0 -23 227 -70 339 -70 129 0 168 25
296 186 40 49 91 105 113 123 44 34 89 98 78 109 -7 6 -134 -120 -286 -285
-69 -74 -80 -82 -123 -88 -95 -14 -265 18 -497 96 -156 51 -350 129 -411 163
-87 49 -350 126 -430 126 -66 0 -110 -56 -158 -200 -11 -36 -31 -81 -43 -100
-12 -19 -21 -43 -19 -53 1 -10 -11 -39 -28 -64 -17 -26 -31 -51 -31 -57 0 -6
-20 -36 -45 -66 -25 -30 -48 -65 -51 -77 -8 -30 -20 -29 -40 2 -25 39 -11 121
42 250 45 107 100 271 144 424 26 88 70 141 117 141 16 0 141 -23 277 -51 136
-27 255 -49 264 -47 46 11 -370 105 -498 114 -74 5 -89 3 -116 -14z m-228
-899 c17 -40 17 -43 0 -43 -17 0 -52 53 -62 95 l-7 30 28 -25 c15 -14 34 -39
41 -57z"/>
<path d="M7715 5420 c8 -23 34 -78 57 -123 32 -60 44 -76 46 -60 6 40 -83 223
-108 223 -5 0 -3 -18 5 -40z"/>
<path d="M7506 5434 c-4 -9 -4 -19 -1 -22 7 -8 35 19 29 29 -8 14 -21 11 -28
-7z"/>
<path d="M9116 5348 c-41 -93 -87 -249 -97 -332 -13 -105 -73 -418 -98 -519
-40 -155 -149 -302 -242 -327 -61 -17 -304 -7 -444 18 -139 25 -175 30 -175
23 0 -12 249 -72 340 -83 52 -5 138 -8 190 -6 112 6 152 22 222 94 94 95 149
240 187 489 62 408 84 511 123 573 11 18 18 35 15 38 -3 3 1 23 8 45 21 59 -2
48 -29 -13z"/>
<path d="M6200 5352 c0 -11 71 -42 97 -42 15 0 15 2 -3 20 -22 22 -94 39 -94
22z"/>
<path d="M7470 5335 c-16 -19 -3 -40 16 -24 15 13 19 39 5 39 -5 0 -14 -7 -21
-15z"/>
<path d="M8460 5317 c0 -18 36 -51 44 -39 6 10 -21 52 -35 52 -5 0 -9 -6 -9
-13z"/>
<path d="M6885 5283 c-33 -8 -71 -16 -84 -19 -15 -3 -20 -9 -14 -15 15 -15
203 23 203 41 0 13 -31 11 -105 -7z"/>
<path d="M6555 5280 c17 -5 66 -12 110 -15 64 -4 75 -3 55 6 -14 6 -63 13
-110 15 -65 3 -78 2 -55 -6z"/>
<path d="M8545 5199 c4 -13 14 -36 21 -51 8 -15 21 -54 28 -85 l14 -58 1 50
c0 55 -35 156 -58 163 -10 3 -11 -2 -6 -19z"/>
<path d="M7824 5123 c22 -155 31 -188 54 -191 19 -3 22 1 22 33 0 20 9 53 20
75 23 44 26 60 8 42 -24 -24 -44 -12 -67 38 -29 64 -46 66 -37 3z"/>
<path d="M5784 5125 c22 -17 46 -20 46 -6 0 10 -25 21 -48 21 -15 -1 -14 -3 2
-15z"/>
<path d="M8110 4980 c0 -5 12 -10 26 -10 14 0 23 4 19 10 -3 6 -15 10 -26 10
-10 0 -19 -4 -19 -10z"/>
<path d="M8340 4981 c0 -5 7 -14 15 -21 13 -10 15 -9 15 9 0 12 -6 21 -15 21
-8 0 -15 -4 -15 -9z"/>
<path d="M8406 4961 c15 -14 85 -34 92 -26 12 12 -31 35 -67 35 -21 0 -31 -4
-25 -9z"/>
<path d="M6042 4838 c-27 -27 -4 -52 37 -41 12 3 21 11 21 17 0 15 -20 36 -35
36 -6 0 -16 -5 -23 -12z"/>
<path d="M7827 4815 c-37 -55 -35 -78 4 -39 21 21 30 39 27 55 -3 23 -5 22
-31 -16z"/>
<path d="M8855 4730 c-45 -71 -57 -75 -256 -78 -160 -3 -195 -1 -356 26 -210
35 -303 45 -321 33 -18 -11 3 -16 141 -35 58 -9 140 -24 182 -35 171 -45 520
-55 611 -17 38 16 42 21 53 71 7 30 10 59 6 65 -13 20 -35 9 -60 -30z"/>
<path d="M7730 4706 c-5 -15 -21 -31 -35 -36 -29 -11 -85 -3 -85 13 0 10 -147
4 -158 -7 -14 -15 22 -27 124 -42 99 -14 160 -31 279 -77 35 -14 42 -14 55 -1
22 22 0 48 -48 56 -67 11 -80 23 -84 70 -4 52 -32 65 -48 24z"/>
<path d="M7834 4695 c-8 -21 2 -45 19 -45 8 0 20 7 27 15 10 12 10 18 0 30 -7
8 -19 15 -27 15 -7 0 -16 -7 -19 -15z"/>
<path d="M6036 4669 c-92 -22 -146 -83 -146 -165 0 -78 29 -122 167 -252 140
-131 152 -140 164 -121 13 21 -20 66 -93 126 -147 120 -204 202 -196 282 3 30
9 38 50 58 26 13 82 28 125 33 80 11 111 9 339 -16 280 -31 567 -38 523 -13
-14 7 -144 23 -284 34 -44 4 -145 15 -224 26 -150 20 -357 24 -425 8z"/>
<path d="M7230 4659 c-135 -16 -215 -38 -198 -54 7 -8 315 22 363 35 l30 7
-28 12 c-32 12 -58 12 -167 0z"/>
<path d="M6950 4540 c0 -5 6 -10 14 -10 8 0 18 5 21 10 3 6 -3 10 -14 10 -12
0 -21 -4 -21 -10z"/>
<path d="M8687 4484 c-14 -15 -6 -34 14 -34 14 0 19 5 17 17 -3 18 -20 27 -31
17z"/>
<path d="M6877 4410 c-102 -18 -149 -67 -155 -166 -7 -103 32 -271 67 -296 10
-7 26 -29 36 -48 21 -42 51 -81 164 -215 46 -55 92 -118 102 -140 10 -22 19
-36 19 -31 1 37 255 -207 353 -339 130 -176 180 -262 226 -393 49 -138 50
-165 6 -170 -37 -4 -90 -44 -116 -86 -14 -24 -19 -50 -19 -112 0 -123 16 -190
61 -258 35 -52 39 -65 39 -122 0 -34 4 -66 10 -69 16 -10 69 23 83 53 22 43
29 97 16 128 -12 28 -13 26 -23 -40 -17 -106 -30 -100 -72 34 -9 30 -27 80
-39 110 -42 100 -44 244 -6 292 15 17 28 21 69 20 66 -1 86 16 77 67 -15 87
-62 234 -94 291 -4 8 -14 27 -22 41 -67 125 -198 287 -493 610 -338 369 -405
476 -409 655 -1 76 -1 77 35 109 60 55 206 72 453 52 71 -6 95 -5 84 2 -43 27
-334 40 -452 21z"/>
<path d="M7447 4364 c-12 -12 4 -24 30 -24 21 0 24 2 13 15 -13 16 -32 20 -43
9z"/>
<path d="M7620 4313 c43 -19 119 -30 105 -15 -10 10 -104 33 -128 31 -7 0 4
-8 23 -16z"/>
<path d="M7960 4241 c0 -5 8 -11 18 -14 9 -2 25 -8 35 -12 12 -5 17 -3 17 8 0
8 -7 18 -16 21 -23 9 -54 7 -54 -3z"/>
<path d="M6856 4136 c7 -19 38 -22 32 -3 -3 6 -12 13 -21 15 -12 2 -15 -1 -11
-12z"/>
<path d="M6375 4020 c-9 -15 63 -82 165 -156 47 -34 128 -100 180 -146 145
-129 630 -616 676 -678 47 -64 88 -164 110 -270 19 -91 14 -114 -28 -131 -91
-37 -136 -127 -124 -243 9 -90 11 -97 29 -108 10 -5 17 -21 17 -38 0 -20 9
-38 29 -56 58 -52 131 -229 176 -432 36 -161 59 -224 91 -257 12 -11 20 -13
29 -5 24 20 27 63 9 132 l-18 67 26 48 c33 60 58 146 57 192 0 32 -1 34 -10
13 -5 -13 -15 -29 -22 -37 -8 -7 -17 -37 -20 -66 -5 -36 -14 -60 -31 -78 -15
-17 -27 -44 -32 -75 -6 -45 -8 -48 -20 -31 -8 11 -14 44 -14 77 0 32 -4 58 -9
58 -4 0 -14 27 -20 60 -14 69 -37 134 -109 301 -58 135 -69 174 -52 194 10 13
8 15 -13 15 -29 0 -37 16 -37 74 0 48 17 73 108 162 45 45 52 56 52 90 0 94
-76 285 -156 394 -54 73 -64 93 -64 123 0 19 -4 24 -18 20 -21 -5 -143 99
-352 302 -192 187 -428 389 -545 468 -44 30 -51 32 -60 17z"/>
<path d="M7612 3763 c-79 -124 -89 -240 -34 -371 60 -143 115 -216 306 -405
98 -97 176 -180 173 -183 -3 -4 2 -14 13 -23 25 -21 118 -210 163 -331 44
-117 55 -187 34 -215 -14 -18 -13 -21 15 -37 35 -22 62 -80 79 -169 11 -63 14
-67 51 -83 21 -10 43 -26 48 -36 14 -26 81 -43 122 -32 87 22 123 199 79 375
-24 91 -53 152 -59 123 -2 -10 6 -38 17 -62 28 -55 39 -213 22 -297 -14 -63
-51 -117 -82 -117 -36 0 -76 29 -107 77 -48 76 -130 274 -138 334 -4 29 -20
87 -35 127 -16 40 -29 78 -29 85 0 25 -73 165 -136 259 -47 71 -84 113 -138
157 -144 118 -334 353 -342 422 -2 16 -11 44 -21 62 -21 40 -29 186 -14 244 6
23 27 64 46 92 29 44 31 51 15 51 -11 0 -30 -19 -48 -47z"/>
<path d="M6370 3441 c0 -16 31 -41 51 -41 25 0 24 8 -3 31 -25 20 -48 25 -48
10z"/>
<path d="M6490 3361 c0 -13 146 -145 212 -190 29 -21 64 -53 78 -73 14 -20 57
-63 95 -97 82 -71 170 -168 210 -231 16 -25 41 -61 56 -80 69 -87 100 -209
114 -460 10 -168 28 -251 81 -360 48 -101 125 -230 148 -249 10 -8 20 -8 42 4
16 8 36 15 44 16 8 1 -3 5 -25 10 -57 14 -89 50 -145 164 -52 106 -120 297
-120 337 0 29 26 68 45 68 26 0 26 18 0 44 -31 31 -34 76 -5 76 26 0 26 22 -1
38 -17 11 -19 19 -14 56 6 34 4 44 -9 49 -9 4 -16 17 -16 29 0 35 -61 154
-119 232 -28 38 -51 77 -51 87 0 11 -5 19 -10 19 -6 0 -107 90 -225 200 -117
111 -235 218 -262 239 -65 50 -123 85 -123 72z"/>
<path d="M8615 2686 c-26 -19 -10 -36 33 -36 21 0 49 -7 62 -17 45 -29 90 -77
90 -94 0 -9 14 -34 31 -55 64 -80 110 -206 193 -525 31 -118 63 -242 73 -276
32 -115 -15 -87 -80 47 -55 114 -89 170 -104 170 -25 0 -14 -51 16 -78 17 -15
39 -49 51 -76 22 -53 129 -246 136 -246 2 0 1 17 -2 39 -3 21 -2 41 4 45 14 9
35 -20 89 -126 48 -94 49 -98 31 -114 -10 -10 -18 -27 -18 -39 0 -27 -20 -45
-86 -78 -67 -34 -106 -73 -146 -150 l-33 -61 -7 54 c-3 30 -7 84 -8 120 -3
114 -19 35 -19 -97 -1 -113 -3 -123 -19 -123 -11 0 -27 -9 -38 -21 -16 -17
-16 -22 -4 -29 8 -6 25 -10 37 -10 24 0 77 -50 126 -118 36 -49 64 -59 45 -14
-7 15 -29 54 -49 87 -21 33 -40 72 -44 86 -9 37 60 167 103 194 17 11 69 44
113 72 45 29 87 53 94 53 23 0 33 -125 15 -191 -8 -27 -29 -53 -77 -94 -93
-79 -104 -97 -115 -173 -19 -137 -20 -134 40 -162 54 -26 152 -104 152 -121 0
-5 -11 -14 -24 -19 -14 -5 -30 -18 -36 -30 -6 -12 -21 -20 -35 -20 -24 0 -65
-31 -65 -48 0 -5 -31 -8 -69 -8 -54 1 -73 -3 -90 -18 -12 -11 -21 -23 -21 -27
0 -19 35 -39 69 -39 27 0 49 -9 76 -30 39 -31 60 -31 50 1 -9 28 2 41 26 29
27 -15 24 -23 -26 -71 -51 -49 -56 -66 -20 -75 61 -15 -37 -59 -154 -69 -92
-7 -114 -13 -105 -26 19 -31 351 34 361 71 4 13 20 19 66 24 73 7 143 39 153
69 4 12 6 50 5 84 -2 57 0 62 21 65 29 4 30 29 1 43 l-21 11 21 9 c35 17 30
32 -29 89 -32 30 -55 58 -51 62 4 4 17 -2 30 -14 26 -25 47 -29 47 -9 0 35
-80 72 -190 88 -86 13 -106 28 -125 94 -26 88 -18 123 35 162 104 77 119 93
126 131 3 20 13 48 21 60 9 14 12 34 8 49 -4 19 -1 26 15 30 11 3 20 14 20 24
0 33 -68 166 -119 232 -79 102 -125 210 -176 412 -31 121 -93 339 -132 463
-32 101 -186 313 -253 346 -43 22 -76 26 -95 12z m723 -2064 c3 -9 -3 -13 -19
-10 -12 1 -24 9 -27 16 -3 9 3 13 19 10 12 -1 24 -9 27 -16z m66 -88 c37 -14
-4 -54 -56 -54 -20 0 -20 1 -5 18 13 14 14 21 5 30 -9 9 -6 12 14 12 15 0 33
-3 42 -6z m-157 -121 c8 -20 -39 -63 -68 -63 -27 0 -24 14 12 49 35 35 47 38
56 14z m153 -8 c0 -8 -4 -15 -10 -15 -5 0 -10 -28 -12 -62 -3 -56 -6 -64 -29
-75 -35 -17 -71 -20 -76 -7 -2 6 8 16 22 22 21 10 25 19 25 51 0 28 8 49 26
70 27 33 54 41 54 16z m-134 -84 c-4 -6 -14 -11 -22 -11 -12 0 -13 4 -3 21 7
14 14 18 21 11 6 -6 7 -15 4 -21z m-26 -91 c0 -14 -42 -50 -52 -44 -12 7 -10
28 4 42 14 14 48 16 48 2z"/>
<path d="M7840 2387 c-24 -12 -70 -71 -70 -89 0 -6 15 0 33 12 53 35 74 43 99
37 39 -10 108 -61 128 -95 11 -18 26 -32 34 -32 7 0 31 -16 52 -35 21 -19 42
-35 47 -35 15 0 -29 53 -105 126 -108 104 -169 135 -218 111z"/>
<path d="M8750 2238 c0 -95 37 -188 76 -188 20 0 17 24 -6 45 -14 12 -20 31
-20 59 0 53 -16 110 -35 126 -13 11 -15 5 -15 -42z"/>
<path d="M7845 2241 c-17 -7 -16 -9 13 -16 41 -9 125 3 117 16 -7 11 -102 11
-130 0z"/>
<path d="M8580 2219 c0 -18 2 -19 15 -9 8 7 15 16 15 21 0 5 -7 9 -15 9 -9 0
-15 -9 -15 -21z"/>
<path d="M7857 2102 c-26 -27 -35 -52 -19 -52 12 0 48 41 55 63 9 25 -6 21
-36 -11z"/>
<path d="M8220 2042 c0 -9 40 -35 46 -29 6 6 -25 37 -37 37 -5 0 -9 -3 -9 -8z"/>
<path d="M8132 2018 c19 -28 48 -36 48 -13 0 8 -12 20 -26 25 -36 14 -38 13
-22 -12z"/>
<path d="M8840 2007 c0 -18 28 -42 37 -33 9 8 -9 38 -25 44 -7 2 -12 -3 -12
-11z"/>
<path d="M8290 1971 c0 -6 24 -36 53 -67 36 -38 58 -55 66 -50 9 6 -1 22 -36
58 -52 53 -83 75 -83 59z"/>
<path d="M8812 1840 c0 -106 10 -158 23 -127 10 23 0 163 -14 197 -7 19 -10 2
-9 -70z"/>
<path d="M8028 1846 c28 -14 52 -31 52 -39 0 -8 13 -20 30 -25 40 -14 76 -55
112 -126 32 -63 78 -228 78 -279 0 -17 9 -50 21 -74 l21 -43 -36 -41 c-21 -22
-42 -51 -48 -65 -20 -43 -222 -152 -324 -174 -62 -14 -313 -104 -373 -135 -49
-24 -93 -65 -72 -65 7 0 45 16 85 35 40 19 179 70 309 114 183 61 245 86 272
110 20 17 42 31 49 31 17 0 134 122 171 178 25 38 27 48 23 111 -4 53 -11 76
-30 102 -14 19 -43 68 -63 109 -102 205 -174 278 -285 294 l-45 6 53 -24z"/>
<path d="M8300 1858 c0 -22 57 -98 74 -98 7 0 16 9 19 20 3 14 0 20 -10 20 -8
0 -31 17 -49 37 -21 23 -34 31 -34 21z"/>
<path d="M7810 1840 c0 -36 11 -70 22 -70 5 0 6 16 2 38 -8 45 -24 66 -24 32z"/>
<path d="M7926 1822 c-9 -18 -15 -43 -13 -55 3 -19 6 -16 21 16 23 52 17 84
-8 39z"/>
<path d="M8600 1765 c0 -23 37 -55 64 -55 44 0 42 22 -4 53 -30 21 -60 22 -60
2z"/>
<path d="M7810 1719 c0 -18 2 -19 15 -9 8 7 15 16 15 21 0 5 -7 9 -15 9 -9 0
-15 -9 -15 -21z"/>
<path d="M8571 1670 c17 -36 58 -90 70 -90 18 0 8 19 -37 67 -30 32 -41 40
-33 23z"/>
<path d="M8720 1684 c0 -4 9 -21 20 -38 l19 -32 -34 4 c-40 5 -44 -6 -15 -39
l20 -24 20 25 c32 40 34 59 9 86 -22 23 -39 31 -39 18z"/>
<path d="M8428 1644 c4 -23 2 -24 -22 -18 -28 7 -37 -10 -10 -20 23 -9 94 -7
94 2 0 9 -53 62 -62 62 -3 0 -3 -11 0 -26z"/>
<path d="M7850 1615 c0 -33 12 -46 25 -25 8 12 -5 60 -16 60 -5 0 -9 -16 -9
-35z"/>
<path d="M7910 1616 c0 -7 15 -33 34 -57 54 -71 93 -141 106 -187 8 -32 15
-42 28 -40 23 5 19 63 -8 122 -22 45 -134 176 -151 176 -5 0 -9 -6 -9 -14z"/>
<path d="M7210 1604 c0 -15 50 -91 105 -159 49 -61 112 -130 239 -264 l71 -74
140 6 c132 4 175 11 175 26 0 3 -53 6 -118 7 -188 1 -168 -10 -345 187 -170
188 -267 287 -267 271z"/>
<path d="M7530 1545 c0 -13 35 -73 71 -121 45 -61 126 -134 148 -134 16 0 -47
67 -95 100 -11 8 -41 48 -67 88 -42 65 -57 82 -57 67z"/>
<path d="M8770 1523 c0 -27 36 -77 45 -63 11 18 -3 58 -25 70 -17 9 -20 8 -20
-7z"/>
<path d="M8536 1456 c33 -69 35 -80 32 -155 -3 -78 4 -103 17 -61 11 36 40 43
126 31 44 -6 88 -15 99 -21 20 -11 40 -66 40 -110 0 -35 11 -70 21 -70 25 0
-3 156 -38 207 -11 15 -34 59 -52 96 -18 38 -52 89 -75 113 l-43 44 -81 0 -81
0 35 -74z"/>
<path d="M7871 1491 c-1 -27 2 -32 11 -23 8 8 8 17 0 34 -10 22 -11 21 -11
-11z"/>
<path d="M8980 1490 c0 -5 6 -10 14 -10 8 0 18 5 21 10 3 6 -3 10 -14 10 -12
0 -21 -4 -21 -10z"/>
<path d="M9164 1425 c10 -41 37 -78 49 -66 12 12 -21 83 -42 89 -11 4 -12 -2
-7 -23z"/>
<path d="M9031 1296 c-10 -12 -8 -17 6 -25 29 -15 49 2 28 23 -20 19 -20 19
-34 2z"/>
<path d="M8022 1278 c-14 -14 -16 -44 -3 -53 11 -6 41 32 41 52 0 16 -22 17
-38 1z"/>
<path d="M8390 1096 c-10 -13 -9 -17 5 -22 19 -8 45 4 48 21 3 17 -39 17 -53
1z"/>
<path d="M8150 982 c-52 -21 -108 -46 -125 -56 l-30 -17 35 5 c50 6 206 65
233 87 21 18 21 18 2 18 -11 0 -63 -17 -115 -37z"/>
<path d="M8733 1005 c-41 -18 -42 -35 -3 -35 28 0 110 34 110 45 0 11 -77 3
-107 -10z"/>
<path d="M8560 944 c-555 -232 -780 -335 -816 -376 -27 -29 -1 -22 104 31 116
58 246 114 402 174 63 25 171 72 240 105 69 33 134 62 145 64 19 3 36 38 18
38 -4 -1 -46 -17 -93 -36z"/>
<path d="M8823 875 c-3 -9 -3 -18 0 -21 9 -9 27 6 27 22 0 19 -19 18 -27 -1z"/>
<path d="M7803 823 c-109 -43 -149 -72 -80 -59 34 6 217 91 217 101 0 11 -28
2 -137 -42z"/>
<path d="M8742 788 c-58 -36 -67 -53 -22 -45 37 8 78 34 91 58 15 29 -8 24
-69 -13z"/>
<path d="M8595 750 c-4 -6 -3 -50 0 -99 5 -62 4 -90 -4 -95 -6 -4 -32 6 -58
23 -72 48 -83 39 -33 -24 17 -21 33 -55 36 -76 6 -37 7 -38 27 -24 34 24 36
18 17 -47 -20 -63 -19 -78 5 -78 24 0 38 79 41 243 2 102 7 164 15 173 9 11 7
14 -14 14 -14 0 -29 -5 -32 -10z"/>
<path d="M7623 743 c-7 -2 -13 -9 -13 -14 0 -14 26 -10 40 6 10 12 10 15 -1
14 -8 0 -20 -3 -26 -6z"/>
<path d="M7440 715 c0 -37 -32 -77 -76 -96 -48 -20 -54 -42 -13 -47 28 -3 108
36 123 60 7 11 6 29 -3 57 -12 40 -31 56 -31 26z"/>
<path d="M8307 709 c-24 -14 -10 -32 19 -25 22 6 24 3 24 -29 0 -19 4 -35 10
-35 15 0 31 39 28 68 -2 22 -9 27 -33 29 -16 2 -38 -2 -48 -8z"/>
<path d="M8199 677 c-72 -30 -192 -97 -185 -104 12 -12 256 99 256 117 0 14
-8 13 -71 -13z"/>
<path d="M8977 647 c-8 -12 -27 -56 -41 -97 -15 -41 -37 -85 -48 -97 -12 -12
-53 -34 -92 -49 -110 -42 -139 -65 -96 -79 13 -4 31 0 47 12 62 44 80 53 104
53 47 0 75 34 105 123 39 120 68 143 112 92 27 -31 86 -36 80 -7 -3 19 -100
72 -134 72 -12 0 -28 -10 -37 -23z"/>
<path d="M8269 561 c-16 -13 -21 -23 -14 -30 13 -13 75 16 75 35 0 20 -34 17
-61 -5z"/>
<path d="M8392 555 c-35 -29 -65 -78 -55 -89 13 -13 32 -5 38 17 4 12 18 34
32 49 37 39 25 56 -15 23z"/>
<path d="M7480 564 c-42 -15 -41 -18 5 -23 58 -7 74 -33 31 -52 -27 -12 -41
-35 -27 -44 12 -7 101 63 101 80 0 24 -75 50 -110 39z"/>
<path d="M7861 523 c-48 -22 -91 -36 -120 -37 -45 -1 -46 0 -44 29 l2 30 -19
-25 c-33 -41 -35 -67 -9 -89 l24 -19 -28 -11 c-16 -6 -34 -11 -40 -11 -20 0
-137 -59 -137 -69 0 -15 28 -21 96 -21 49 0 64 -3 64 -14 0 -8 -4 -18 -10 -21
-5 -3 -10 -10 -10 -16 0 -16 18 -10 44 16 31 31 65 32 100 4 21 -17 36 -20 67
-16 21 3 39 4 39 2 0 -2 -21 -14 -47 -27 l-46 -23 44 -2 c95 -6 128 -15 165
-44 21 -17 49 -29 65 -29 17 0 37 -9 46 -20 26 -30 78 -26 109 7 25 27 35 30
184 45 20 2 28 -4 39 -29 11 -24 23 -34 47 -39 50 -9 271 14 307 33 25 13 51
15 133 10 100 -6 144 -2 144 13 0 4 -41 10 -91 13 -51 3 -96 10 -102 16 -12
12 44 27 140 36 65 6 116 25 103 39 -3 3 -23 1 -45 -5 -22 -5 -113 -8 -203 -8
-89 1 -166 -1 -170 -5 -3 -4 -7 -17 -7 -29 0 -19 -6 -22 -42 -25 -60 -4 -83
11 -83 53 0 60 -53 94 -127 82 -48 -8 -52 -15 -23 -38 25 -19 25 -19 5 -35
-13 -10 -30 -13 -50 -9 -16 4 -121 10 -231 14 -202 7 -234 13 -234 46 0 7 -7
18 -15 25 -8 7 -15 25 -15 41 0 45 -36 63 -110 54 -33 -4 -60 -3 -60 2 0 10
223 113 245 113 8 0 15 7 15 15 0 22 -27 17 -109 -22z m664 -296 c0 -38 5 -53
23 -67 30 -25 28 -30 -12 -30 -46 0 -76 37 -76 95 0 49 6 57 40 53 23 -3 25
-7 25 -51z m-461 -68 c-7 -11 -25 -11 -43 0 -24 15 -3 32 24 19 13 -6 22 -15
19 -19z m209 20 c-7 -7 -47 -13 -90 -15 -78 -3 -78 -3 -38 11 51 17 144 20
128 4z"/>
<path d="M7357 544 c-19 -19 -6 -35 26 -32 39 4 45 32 7 36 -14 2 -29 0 -33
-4z"/>
<path d="M8154 404 c-9 -34 8 -88 28 -92 20 -4 122 78 126 102 3 16 -4 14 -51
-13 -68 -39 -77 -39 -77 -1 0 37 -17 40 -26 4z"/>
<path d="M9375 151 c-22 -10 -56 -28 -75 -39 l-35 -22 62 0 c52 0 66 4 92 26
58 49 32 70 -44 35z"/>
<path d="M8280 101 c0 -11 45 -44 73 -54 46 -17 42 25 -4 48 -32 17 -69 20
-69 6z"/>
<path d="M8620 63 c-14 -3 -29 -9 -35 -15 -7 -7 13 -8 64 -3 100 9 136 24 56
23 -33 0 -71 -3 -85 -5z"/>
<path d="M8080 26 c-21 -12 -22 -16 -9 -21 9 -3 41 -5 70 -3 40 2 54 7 54 18
0 20 -82 24 -115 6z"/>
<path d="M8430 30 c0 -13 27 -13 35 0 3 6 -3 10 -14 10 -12 0 -21 -4 -21 -10z"/>
</g>
</svg>
