<?xml version="1.0" standalone="no"?>
<!DOCTYPE svg PUBLIC "-//W3C//DTD SVG 20010904//EN"
 "http://www.w3.org/TR/2001/REC-SVG-20010904/DTD/svg10.dtd">
<svg version="1.0" xmlns="http://www.w3.org/2000/svg"
 width="897.000000pt" height="1280.000000pt" viewBox="0 0 897.000000 1280.000000"
 preserveAspectRatio="xMidYMid meet">
<metadata>
Created by potrace 1.15, written by Peter Selinger 2001-2017
</metadata>
<g transform="translate(0.000000,1280.000000) scale(0.100000,-0.100000)"
fill="#000000" stroke="none">
<path d="M4300 12789 c-58 -9 -109 -25 -245 -76 -22 -8 -85 -19 -140 -25 -71
-7 -114 -17 -150 -34 -37 -18 -77 -27 -155 -34 -198 -18 -335 -73 -461 -185
-47 -42 -78 -60 -147 -84 -113 -40 -157 -62 -157 -81 0 -21 53 -44 105 -44 37
-1 45 2 48 19 6 31 21 44 91 80 144 72 322 113 436 101 90 -10 166 -33 320
-99 211 -89 220 -90 495 -84 256 5 295 12 420 67 93 41 146 48 200 26 38 -15
41 -15 46 1 24 75 34 78 96 28 71 -57 140 -94 198 -106 76 -15 144 -54 199
-115 52 -57 82 -77 104 -68 15 5 50 -32 79 -84 9 -17 35 -42 57 -56 40 -26 67
-67 90 -138 18 -55 50 -92 67 -77 18 15 30 -17 55 -150 10 -57 21 -106 23
-108 2 -2 7 35 11 82 7 84 20 117 29 73 3 -13 7 -111 10 -218 3 -107 9 -208
14 -224 22 -76 51 -12 53 114 1 106 14 63 29 -94 20 -211 4 -346 -66 -561 -47
-142 -95 -246 -143 -309 -60 -79 -90 -149 -69 -162 51 -32 386 512 505 819 77
200 44 375 -97 511 -52 51 -61 64 -58 90 4 45 42 59 164 64 121 5 312 -18 442
-53 189 -51 374 -136 349 -162 -5 -4 -71 -10 -147 -13 -77 -3 -142 -9 -146
-13 -18 -18 23 -31 123 -38 228 -18 399 -70 543 -164 65 -42 163 -135 144
-135 -6 0 -44 11 -84 25 -124 42 -144 30 -52 -31 68 -46 102 -74 102 -86 0
-12 -27 -3 -120 37 -41 18 -91 36 -110 40 -31 7 -33 6 -21 -8 7 -9 47 -35 89
-58 125 -68 232 -149 196 -149 -3 0 -66 32 -140 70 -74 39 -142 70 -150 70
-23 0 -28 -28 -10 -55 10 -15 26 -25 40 -25 22 0 136 -67 136 -81 0 -3 -37 3
-82 13 -61 15 -107 19 -175 16 -91 -4 -93 -4 -250 -82 -87 -43 -195 -102 -241
-133 -98 -65 -207 -117 -280 -132 -74 -15 -162 -74 -195 -131 -18 -29 -18 -29
8 -36 14 -3 101 -4 193 -1 188 5 258 20 307 67 71 69 231 99 414 81 119 -13
173 -32 297 -106 101 -60 231 -125 251 -125 24 0 65 -106 77 -200 4 -25 11
-103 16 -175 12 -149 50 -385 87 -528 17 -67 23 -114 20 -145 -29 -262 -31
-309 -19 -476 8 -121 17 -188 31 -228 11 -32 25 -101 31 -154 5 -52 26 -165
45 -250 35 -151 35 -155 20 -213 -8 -32 -15 -67 -15 -77 1 -18 1 -18 11 -1 15
26 38 21 45 -10 3 -16 7 -33 9 -39 2 -7 -4 -22 -12 -34 -13 -18 -14 -38 -10
-99 4 -42 10 -87 13 -99 7 -24 7 -24 -53 7 -90 45 -176 71 -237 71 -65 0 -106
14 -106 35 0 13 -6 11 -30 -6 -24 -18 -51 -24 -142 -31 -281 -22 -469 -40
-542 -54 -140 -27 -227 -69 -247 -120 -4 -13 -24 -31 -44 -39 -19 -8 -50 -21
-68 -29 -60 -25 -201 -140 -351 -286 -165 -160 -230 -241 -247 -303 -30 -113
-59 -137 -169 -137 -84 0 -130 17 -184 68 -21 20 -36 30 -33 21 22 -64 57
-181 63 -213 5 -30 4 -37 -6 -31 -16 10 -88 160 -102 213 -6 23 -14 42 -17 42
-4 0 -16 -17 -26 -37 l-18 -38 -7 31 c-10 45 -17 52 -60 64 -21 6 -57 26 -80
45 -33 28 -47 33 -71 28 -40 -8 -78 29 -115 110 -21 48 -29 86 -37 184 l-11
122 -26 -82 c-15 -46 -40 -107 -56 -136 -22 -41 -26 -55 -16 -58 33 -12 82
-68 116 -133 24 -44 47 -75 65 -84 84 -44 191 -161 191 -209 0 -21 -31 -30
-65 -17 -15 6 -29 9 -31 7 -2 -2 7 -19 21 -37 18 -24 25 -47 25 -77 0 -23 13
-90 30 -148 56 -201 79 -457 44 -486 -13 -11 -15 -26 -11 -77 5 -45 2 -70 -7
-85 -10 -16 -15 -77 -19 -213 -4 -153 -8 -198 -22 -228 -12 -25 -15 -47 -10
-72 6 -37 6 -37 -23 -31 -40 8 -45 -7 -36 -115 6 -84 6 -87 -19 -111 l-26 -23
39 -65 c51 -81 55 -121 7 -67 -34 40 -77 61 -102 52 -19 -8 -19 -10 5 -43 31
-44 38 -99 50 -386 6 -148 13 -279 15 -290 2 -11 6 -39 9 -62 6 -42 6 -42 -31
-53 -21 -6 -97 -14 -169 -17 -125 -6 -133 -5 -185 19 -34 15 -95 62 -162 124
-186 171 -250 224 -304 250 -50 25 -54 25 -78 10 -28 -19 -43 -62 -28 -85 5
-9 33 -20 61 -26 28 -5 56 -15 62 -21 6 -6 15 -51 20 -100 10 -100 23 -145 75
-242 73 -139 157 -224 290 -292 84 -44 115 -48 210 -25 123 30 198 16 307 -58
46 -30 58 -50 40 -61 -5 -3 -44 1 -88 9 -43 7 -176 23 -294 35 -312 30 -376
38 -569 71 -96 17 -226 35 -290 40 -93 7 -122 13 -145 30 l-29 21 -24 -31
c-20 -25 -32 -31 -64 -31 -44 0 -79 27 -80 63 0 21 -1 21 -10 -3 -17 -42 -40
-60 -77 -60 -40 0 -71 -25 -163 -128 -90 -100 -156 -204 -181 -285 -21 -67
-23 -90 -23 -312 0 -144 6 -270 13 -315 29 -176 135 -312 332 -429 144 -86
346 -185 440 -216 42 -14 104 -42 136 -62 119 -73 140 -83 169 -83 38 0 109
40 113 63 5 23 -80 62 -328 152 -102 37 -218 83 -259 101 -140 64 -299 185
-315 240 -3 11 0 29 8 39 14 19 15 19 35 1 11 -10 28 -39 37 -65 23 -61 32
-70 48 -48 19 24 31 21 60 -15 l26 -33 0 36 c0 19 -5 61 -11 93 -5 31 -9 62
-7 68 2 5 42 -47 88 -118 l85 -127 8 49 c22 133 14 130 62 29 l43 -90 3 90 4
90 38 -74 c37 -71 51 -79 59 -36 2 11 10 20 18 20 17 0 35 -35 47 -90 6 -31
13 -40 28 -40 22 0 25 23 11 82 -4 20 -4 33 2 33 11 0 44 -74 63 -140 l13 -45
7 64 c9 71 13 79 31 63 7 -6 31 -12 53 -14 39 -3 39 -3 50 -57 16 -87 64 -97
65 -13 0 17 5 32 10 32 6 0 10 -8 10 -17 1 -31 38 -103 54 -103 16 0 24 30 28
105 l3 40 32 -68 c21 -45 40 -71 53 -74 12 -3 28 -19 36 -35 9 -17 19 -27 22
-23 4 4 9 43 12 88 l5 82 22 -70 c24 -77 41 -105 63 -108 29 -5 40 -19 40 -51
0 -55 -11 -58 -183 -50 -119 5 -156 4 -162 -6 -11 -18 9 -27 95 -45 41 -9 113
-25 158 -37 49 -12 100 -18 122 -15 56 7 141 49 175 86 17 17 47 36 67 41 28
8 66 42 170 151 73 77 141 155 150 172 9 18 20 57 24 87 6 48 12 60 50 95 23
22 46 52 49 68 4 15 24 54 46 87 41 64 69 135 69 178 0 47 -29 142 -71 231
-45 97 -72 131 -105 131 -13 0 -32 12 -44 27 -27 35 -57 52 -90 53 -14 0 -51
9 -81 19 -39 14 -104 23 -230 30 -228 14 -398 36 -479 63 -83 28 -204 31 -242
6 -26 -17 -27 -17 -30 10 -4 34 -26 39 -178 41 -274 2 -550 -76 -715 -202
-100 -76 -107 -112 -21 -112 35 0 53 8 99 44 113 87 242 116 292 66 14 -13 25
-29 25 -35 0 -20 26 -9 80 35 110 90 183 106 261 57 24 -16 50 -36 58 -45 17
-21 46 -21 122 0 51 14 70 15 136 5 107 -17 160 -43 178 -87 9 -19 19 -35 23
-35 4 0 26 9 47 21 46 24 104 21 285 -12 58 -10 131 -19 164 -19 56 0 60 2 96
41 l37 41 6 -54 c4 -34 12 -57 23 -63 118 -71 194 -138 194 -173 0 -27 -53
-138 -81 -168 -15 -16 -19 -35 -19 -96 0 -84 -5 -92 -62 -102 -70 -13 -133
-85 -198 -226 -12 -27 -48 -23 -79 8 -39 39 -54 97 -45 181 6 62 4 69 -19 97
l-26 31 42 -1 42 -1 44 90 c44 90 62 167 43 179 -16 10 -70 -60 -83 -106 -26
-98 -52 -118 -156 -118 -81 0 -128 16 -174 57 -41 37 -52 65 -66 168 -7 54
-11 60 -33 63 -14 2 -31 11 -37 19 -10 13 -12 -5 -7 -93 6 -102 5 -111 -16
-136 -28 -37 -49 -35 -136 9 -77 39 -110 38 -59 -3 28 -22 28 -24 8 -24 -36 0
-71 21 -83 49 -6 15 -21 86 -34 158 -28 150 -38 176 -69 171 -24 -3 -25 -15
-12 -174 6 -65 4 -86 -9 -113 -20 -37 -46 -38 -61 -3 -10 22 -14 23 -85 17
-64 -5 -80 -3 -106 13 -40 26 -62 75 -73 163 -11 82 -25 104 -47 74 -12 -15
-13 -37 -8 -102 7 -81 6 -83 -22 -115 -16 -18 -55 -72 -87 -121 -57 -85 -87
-114 -107 -102 -16 10 -45 73 -74 160 -29 89 -63 154 -86 165 -31 15 -140 36
-140 28 0 -5 5 -18 10 -29 17 -31 -5 -22 -39 16 -38 43 -45 71 -38 144 9 106
72 231 188 375 52 64 71 82 95 84 16 1 58 11 94 22 86 26 246 40 446 40 138 0
171 -3 213 -19 70 -28 231 -50 492 -66 149 -10 239 -20 262 -30 20 -8 57 -15
83 -15 67 0 241 -27 351 -55 149 -38 222 -95 278 -218 31 -67 55 -186 55 -271
0 -122 -57 -287 -125 -359 -24 -26 -35 -46 -35 -68 0 -36 -13 -62 -51 -106
-40 -47 -112 -184 -159 -303 -60 -154 -67 -166 -162 -270 -217 -237 -228 -247
-264 -253 -20 -3 -83 -24 -142 -45 -59 -22 -168 -57 -242 -78 -122 -34 -149
-38 -280 -42 -148 -4 -200 4 -200 31 0 9 -15 16 -43 19 -60 7 -138 43 -144 68
-4 14 -14 20 -33 20 -19 0 -57 21 -116 65 -48 36 -97 68 -110 71 -14 4 -35 26
-53 57 -16 29 -52 74 -79 101 -48 46 -72 53 -72 20 0 -9 -6 -14 -12 -12 -19 6
-105 182 -113 230 -7 37 -9 40 -20 25 -19 -27 -37 -21 -85 28 -24 25 -47 45
-51 45 -4 0 -3 -17 3 -37 33 -122 259 -453 309 -453 11 0 29 -17 45 -42 38
-60 223 -242 272 -267 23 -12 45 -27 49 -35 12 -19 55 -40 166 -76 62 -21 104
-41 116 -55 17 -22 28 -24 227 -34 259 -14 361 -28 385 -52 11 -11 28 -19 39
-19 34 0 100 -157 100 -238 0 -20 -20 -77 -47 -136 -25 -55 -58 -135 -72 -176
-31 -89 -55 -109 -163 -136 -61 -16 -109 -19 -298 -18 -208 1 -238 3 -395 33
-93 17 -197 41 -230 53 -33 12 -80 22 -105 23 -26 1 -87 18 -145 42 -55 22
-173 64 -262 93 -117 37 -186 66 -249 103 -169 101 -348 271 -458 436 -91 136
-187 298 -213 361 -57 134 -164 343 -303 590 -162 288 -390 735 -437 855 -17
44 -77 222 -132 395 -238 745 -261 891 -291 1815 -6 191 -18 364 -29 451 -11
78 -25 220 -32 315 -11 148 -15 176 -31 189 -23 18 -37 76 -38 147 0 28 -5 64
-11 80 -9 25 -11 26 -20 10 -6 -10 -9 -52 -7 -95 3 -83 6 -80 -52 -71 -24 4
-25 2 -24 -46 1 -27 17 -135 37 -240 67 -354 89 -639 91 -1145 1 -272 -2 -352
-13 -378 -7 -17 -19 -32 -25 -32 -6 0 -29 14 -50 32 -34 28 -46 32 -90 30 -68
-3 -106 13 -106 45 0 14 -14 42 -32 62 -41 47 -111 196 -138 294 -36 131 -12
197 34 93 15 -33 31 -56 40 -56 75 0 -42 351 -307 920 -52 113 -103 232 -112
264 -23 79 -16 226 15 311 39 110 50 195 50 404 0 109 3 201 7 204 10 11 26
-18 96 -173 54 -120 68 -163 81 -246 18 -117 21 -221 5 -261 -5 -15 -30 -53
-53 -83 -119 -151 -126 -267 -23 -368 24 -24 106 -93 183 -155 l139 -112 33
-85 c62 -162 84 -209 109 -236 18 -19 27 -24 35 -16 48 48 -80 421 -194 565
-55 71 -87 137 -105 221 -23 111 -5 194 62 291 26 39 27 43 22 140 -12 261
-215 644 -554 1048 -125 150 -149 215 -96 257 59 47 173 4 321 -120 46 -39 98
-77 117 -84 41 -17 69 -67 61 -107 -4 -21 -2 -27 9 -23 20 8 53 -13 119 -75
88 -84 116 -130 116 -188 0 -58 14 -81 55 -91 21 -6 36 -19 48 -45 10 -20 23
-37 28 -37 5 0 33 25 64 55 60 61 109 138 126 200 6 22 24 70 40 107 32 73 37
118 14 118 -22 0 -27 36 -17 123 4 42 5 77 0 77 -4 0 -8 -3 -8 -7 0 -23 -124
-169 -156 -186 -21 -11 -69 -43 -108 -73 -39 -30 -74 -54 -78 -54 -26 0 14 49
182 225 147 155 254 307 306 436 28 69 26 96 -6 79 -33 -18 -35 11 -5 100 15
45 25 83 22 86 -2 3 -20 -2 -38 -10 -19 -8 -46 -17 -60 -20 -16 -4 -63 -44
-120 -104 -92 -95 -219 -254 -219 -273 0 -46 140 82 233 214 36 51 77 103 91
116 24 23 26 23 26 5 0 -37 -80 -148 -205 -284 -71 -78 -107 -111 -269 -253
-80 -71 -86 -91 -21 -81 41 6 45 4 45 -15 0 -28 -29 -41 -93 -41 -46 0 -60 4
-85 28 -61 57 -54 106 35 251 69 112 195 248 343 371 184 153 294 287 377 456
24 50 47 113 51 140 7 48 -5 164 -17 164 -3 0 -19 -21 -36 -48 -48 -76 -84
-112 -112 -112 -21 0 -24 -4 -20 -21 13 -47 -43 -116 -400 -491 -57 -59 -103
-116 -103 -127 0 -10 -12 -26 -26 -35 -15 -10 -43 -54 -67 -104 -23 -47 -48
-88 -54 -90 -23 -7 -14 36 22 102 71 128 105 312 105 568 0 202 -9 219 -85
158 -21 -16 -42 -30 -46 -30 -5 0 -9 28 -9 63 0 58 3 64 36 97 19 19 70 84
111 145 89 128 261 305 458 470 209 174 390 360 454 465 48 79 11 81 -58 3
-28 -31 -54 -54 -57 -50 -4 4 -3 12 3 19 5 7 48 65 96 129 48 63 87 118 87
122 0 17 -46 -20 -177 -140 -182 -168 -227 -206 -421 -354 -90 -68 -197 -150
-238 -181 -41 -32 -79 -58 -85 -58 -16 0 -10 27 22 112 41 105 84 153 150 167
27 6 73 23 102 37 225 114 612 468 643 587 10 43 -10 32 -57 -30 -55 -74 -109
-133 -120 -133 -15 0 -10 44 8 70 9 14 39 52 67 85 52 63 126 172 126 187 0 4
-11 8 -24 8 -13 0 -26 6 -28 12 -7 19 -67 -25 -193 -142 -108 -100 -145 -128
-145 -113 0 5 52 60 116 123 64 63 146 154 183 202 65 82 171 268 154 268 -5
0 -36 -42 -71 -94 -34 -52 -70 -97 -79 -100 -17 -7 -53 19 -53 40 0 7 15 32
33 56 50 65 51 68 28 68 -12 0 -38 -16 -60 -35 -21 -19 -49 -35 -62 -35 -15 0
-37 -15 -60 -40 -23 -25 -46 -40 -60 -40 -28 0 -40 -8 -55 -35 -13 -23 -74
-34 -74 -14 0 31 206 192 261 204 19 4 34 16 39 31 8 20 14 23 40 18 19 -4 30
-2 30 5 0 15 150 86 382 180 198 81 298 126 298 137 0 3 -42 3 -94 -1 -65 -5
-96 -4 -100 4 -22 34 -324 -22 -446 -84 -65 -33 -90 -39 -90 -23 1 42 384 264
594 345 103 39 162 71 223 119 23 19 47 34 54 34 6 0 31 -17 54 -39 34 -31 56
-42 116 -55 97 -22 206 -58 359 -118 192 -76 287 -127 263 -140 -8 -5 -331 85
-418 117 -41 15 -89 19 -265 23 -224 4 -292 -3 -304 -35 -17 -42 51 -70 249
-104 364 -61 537 -104 730 -182 301 -121 539 -271 865 -547 272 -230 412 -322
442 -292 8 8 -5 27 -50 70 -56 53 -65 69 -74 127 -3 15 -10 19 -30 17 -21 -2
-25 1 -21 17 6 23 -17 69 -70 139 -22 29 -37 56 -33 59 10 10 121 -103 162
-164 21 -32 34 -64 34 -83 0 -31 2 -32 30 -27 40 8 58 0 75 -34 9 -16 24 -33
35 -39 37 -20 23 25 -35 107 -67 96 -116 176 -110 182 3 2 29 -19 59 -47 44
-42 61 -52 90 -52 24 0 48 -10 79 -34 65 -50 82 -57 95 -44 7 7 12 23 12 36 0
19 -4 22 -20 17 -25 -8 -69 35 -142 135 -25 36 -96 118 -157 184 -61 65 -116
133 -123 152 -10 28 -16 32 -35 28 -32 -8 -49 9 -68 67 -18 55 -30 66 -49 49
-11 -8 -18 -5 -34 14 -21 27 -47 107 -40 127 2 7 42 -23 94 -70 49 -45 106
-91 126 -102 21 -10 45 -34 54 -52 22 -43 45 -68 56 -61 13 8 45 -23 52 -50 3
-12 39 -52 80 -89 113 -102 265 -300 293 -382 9 -26 12 -28 18 -11 5 11 1 49
-10 92 -20 80 -19 90 9 86 16 -2 18 2 12 30 -23 116 -256 408 -509 639 -141
128 -215 184 -295 220 -34 16 -65 35 -68 44 -4 9 -33 29 -67 45 -33 17 -86 50
-119 75 -33 25 -64 45 -69 45 -38 0 42 -86 161 -170 128 -92 154 -114 149
-128 -3 -8 -32 4 -81 33 -42 25 -82 45 -88 45 -25 0 -4 -35 65 -109 43 -46 75
-89 75 -101 0 -18 -3 -19 -22 -9 -13 7 -48 34 -78 60 -107 92 -339 228 -499
293 -87 35 -95 34 -87 -9 4 -21 3 -35 -3 -35 -19 0 -49 42 -56 76 l-6 35 -20
-25 c-31 -39 -73 -35 -117 11 l-35 37 -28 -34 c-34 -40 -37 -65 -9 -80 22 -12
27 -40 8 -40 -7 0 -41 9 -75 20 -78 24 -227 43 -271 35 -29 -5 -32 -8 -21 -22
8 -8 22 -19 34 -24 32 -15 -123 -1 -178 16 -26 8 -64 27 -84 42 -34 26 -43 28
-120 26 -101 -1 -207 -18 -292 -44 -36 -11 -73 -18 -82 -16 -10 3 -33 -6 -50
-19 -41 -30 -49 -30 -49 -1 0 59 167 249 272 311 131 77 429 136 683 136 148
0 215 -12 248 -46 24 -24 25 -24 30 -4 6 24 33 26 102 5 27 -9 55 -13 63 -10
7 2 53 -9 103 -25 102 -34 122 -36 172 -15 34 14 36 14 51 -10 9 -14 25 -25
35 -25 32 0 52 -12 61 -36 6 -15 22 -27 50 -34 89 -24 376 -240 579 -436 248
-239 432 -463 541 -657 34 -62 74 -130 89 -152 23 -36 26 -38 29 -18 4 30 -51
237 -92 343 -87 223 -288 558 -423 701 -68 72 -86 106 -72 132 9 14 5 17 -21
17 -29 0 -40 8 -74 55 -15 19 -15 18 -16 -16 0 -22 9 -50 25 -73 13 -20 20
-36 16 -36 -19 0 -70 72 -77 107 -9 53 -21 64 -59 57 -42 -7 -89 16 -180 92
-125 102 -269 185 -460 265 -44 18 -90 43 -103 56 -14 14 -33 23 -45 21 -17
-2 -24 5 -33 31 -8 24 -22 39 -48 52 -21 10 -55 34 -77 53 -41 38 -58 43 -76
25 -8 -8 -20 -8 -46 0 -40 14 -142 1 -207 -25 -38 -15 -44 -23 -41 -51 3 -18
-55 -50 -103 -57 -22 -4 -95 -10 -161 -15 -214 -17 -340 -72 -497 -220 -92
-86 -131 -142 -142 -199 -3 -19 -23 -53 -43 -77 -21 -23 -62 -87 -91 -142 -69
-129 -124 -194 -247 -291 -156 -122 -215 -199 -235 -302 -12 -64 -36 -96 -115
-154 -137 -100 -281 -284 -304 -385 -8 -39 -25 -59 -119 -150 -60 -58 -138
-144 -173 -191 -75 -100 -139 -167 -174 -180 -44 -17 -60 -73 -115 -385 -71
-409 -74 -500 -40 -1066 13 -221 1 -533 -23 -607 -14 -44 -35 -50 -117 -32
-71 15 -83 22 -90 50 l-6 23 -17 -26 c-20 -31 -57 -35 -97 -12 -56 32 -94 7
-147 -99 -48 -94 -41 -199 29 -470 35 -137 72 -232 122 -314 44 -70 59 -113
87 -244 29 -131 32 -298 7 -343 -23 -43 -45 -159 -59 -312 -17 -201 -13 -214
196 -588 184 -330 175 -309 175 -382 0 -34 -11 -131 -25 -215 -32 -197 -32
-213 3 -246 40 -38 60 -71 77 -129 21 -69 80 -155 162 -234 117 -113 213 -166
378 -208 l41 -11 33 -192 c60 -349 171 -739 308 -1088 88 -223 164 -378 269
-545 48 -77 150 -255 227 -395 300 -550 550 -949 701 -1118 81 -91 89 -106 87
-161 -2 -61 18 -84 46 -52 9 12 25 21 34 21 9 0 76 -31 150 -68 148 -75 357
-149 599 -211 241 -63 332 -78 765 -126 227 -25 424 -52 451 -61 82 -28 247 1
293 50 31 33 117 69 167 69 35 0 41 3 36 19 -7 26 11 43 82 76 35 16 77 45 94
63 16 19 50 56 74 83 23 27 99 94 166 149 68 55 136 119 150 141 14 23 51 70
83 106 89 101 227 289 256 350 15 30 36 61 47 69 38 28 233 459 295 656 50
155 282 584 531 980 62 99 139 229 172 289 33 60 94 159 136 220 42 60 80 114
84 120 3 5 30 -17 60 -49 52 -57 113 -94 153 -95 60 0 209 109 260 190 33 52
69 158 100 295 31 133 41 159 86 210 17 19 37 57 44 87 8 29 28 91 45 138 80
217 208 822 281 1325 17 121 35 230 40 243 6 16 17 22 39 22 23 0 33 7 45 30
8 16 15 34 15 39 0 28 47 128 91 196 226 347 193 557 -103 650 -98 31 -125 45
-163 84 -24 26 -30 41 -33 94 -4 55 1 76 37 168 47 120 77 230 87 312 6 51 9
57 30 57 48 0 70 76 37 127 -36 54 -27 526 11 617 13 32 13 34 -16 59 -33 30
-32 60 6 89 20 16 21 27 24 210 6 335 -20 659 -67 818 -52 181 -148 395 -181
405 -20 6 -30 33 -30 83 0 40 -33 121 -183 447 -63 138 -142 318 -175 400 -84
211 -96 237 -138 302 -87 138 -202 241 -362 328 -51 27 -134 80 -185 118 -109
80 -252 164 -357 207 -137 57 -173 62 -557 67 l-352 5 -57 107 c-31 58 -75
133 -99 166 -98 138 -253 292 -380 378 -73 50 -145 115 -145 132 0 21 -34 42
-79 49 -24 4 -72 22 -106 41 -34 19 -71 35 -81 35 -11 0 -58 18 -104 40 -156
76 -321 109 -570 115 -91 2 -194 -1 -230 -6z m365 -399 c4 -6 -12 -10 -40 -10
-28 0 -44 4 -40 10 3 6 21 10 40 10 19 0 37 -4 40 -10z m-1387 -252 c7 -7 12
-20 12 -30 0 -17 -3 -16 -52 3 -75 29 -81 39 -22 39 28 0 55 -5 62 -12z m202
-57 c48 -17 150 -58 226 -92 77 -34 193 -84 258 -110 85 -35 142 -66 195 -106
102 -79 293 -263 316 -307 41 -76 -3 -55 -170 79 -65 53 -132 99 -147 102 -31
6 -58 37 -58 65 0 20 -16 25 -22 6 -7 -19 -46 -3 -155 62 -57 33 -117 63 -135
67 -19 3 -47 20 -64 39 -27 29 -37 33 -62 28 -24 -5 -32 -2 -41 15 -8 14 -21
21 -41 21 -20 0 -35 8 -50 30 -14 20 -30 30 -47 30 -17 0 -27 7 -30 20 -3 12
-17 22 -32 26 -65 13 -107 54 -56 54 15 0 67 -13 115 -29z m-195 -51 c92 -14
105 -18 105 -37 0 -16 -53 -14 -225 9 -127 17 -316 13 -425 -10 -176 -37 -261
-63 -295 -93 -34 -30 -109 -68 -134 -69 -20 0 59 68 131 112 70 43 159 75 266
94 89 15 462 12 577 -6z m-132 -641 c12 -7 25 -17 29 -22 3 -6 25 -12 48 -13
41 -2 120 -46 120 -66 0 -22 -188 48 -237 88 -28 23 -28 23 -5 24 13 0 33 -5
45 -11z m630 -36 c44 -22 87 -55 87 -65 0 -5 -31 7 -70 28 -38 20 -70 40 -70
45 0 13 17 11 53 -8z m382 -254 c9 -28 -9 -46 -30 -29 -8 7 -15 21 -15 31 0
26 37 25 45 -2z m109 -95 c18 -17 25 -29 17 -32 -14 -5 -35 12 -63 51 -19 27
-20 28 -2 19 10 -6 32 -23 48 -38z m-2826 -378 c-64 -63 -125 -131 -135 -152
-20 -41 -31 -48 -52 -35 -26 17 -1 61 79 140 74 74 209 175 220 165 2 -3 -48
-56 -112 -118z m2908 18 c40 -33 52 -60 20 -48 -15 6 -81 84 -71 84 4 0 26
-16 51 -36z m-2610 -118 c15 -40 -102 -169 -257 -284 -53 -39 -99 -78 -102
-85 -3 -8 6 -30 20 -50 29 -42 26 -51 -25 -68 -55 -17 -62 -26 -62 -81 0 -43
-4 -54 -30 -78 -37 -34 -38 -50 -5 -50 30 0 80 24 174 84 36 23 84 53 106 66
l40 23 -35 -38 c-48 -52 -210 -180 -311 -247 -159 -104 -200 -114 -124 -30 26
29 45 55 42 58 -3 3 -22 1 -44 -5 -96 -27 -95 -18 20 97 59 59 107 111 107
115 0 4 -19 6 -42 5 -38 -3 -43 0 -46 20 -4 27 24 75 39 67 19 -12 111 107 95
123 -12 12 -63 -27 -179 -135 -114 -107 -137 -125 -137 -104 0 50 391 441 442
441 9 0 34 18 55 40 22 25 72 59 126 85 93 47 124 54 133 31z m-222 -1927
c-65 -129 -122 -204 -142 -184 -10 9 154 254 171 255 4 0 -9 -32 -29 -71z
m-674 -197 c0 -20 -36 -59 -46 -50 -8 8 24 68 36 68 6 0 10 -8 10 -18z m510
-39 c0 -13 -53 -63 -67 -63 -22 0 -15 27 13 49 26 21 54 28 54 14z m6519
-1107 c23 -19 54 -37 70 -41 55 -12 73 -46 105 -200 14 -64 35 -133 46 -152
11 -20 19 -37 16 -40 -2 -2 -41 14 -86 37 -45 23 -84 40 -86 38 -2 -2 15 -31
36 -63 22 -33 40 -66 40 -72 0 -24 -39 -13 -52 15 -20 42 -44 35 -41 -12 3
-38 3 -38 -29 -32 -18 4 -50 18 -70 31 l-38 25 0 -38 c0 -45 25 -137 47 -170
8 -13 13 -25 11 -27 -2 -2 -24 9 -48 24 -57 35 -103 51 -149 51 -52 0 -67 -18
-39 -47 25 -27 41 -29 58 -8 19 23 43 18 75 -15 l30 -31 -45 3 c-40 3 -46 0
-58 -24 -7 -16 -16 -28 -20 -28 -4 0 -30 23 -57 51 -62 63 -148 125 -244 175
-117 60 -167 120 -128 152 7 6 42 12 77 14 l65 3 -72 39 c-40 22 -71 41 -69
43 1 2 43 7 92 11 l89 8 -38 19 c-32 16 -35 20 -20 27 10 4 36 4 58 2 37 -5
43 -2 77 35 37 42 75 63 143 81 103 26 83 50 -43 51 l-97 1 53 16 c29 10 61
27 70 39 15 20 23 22 67 17 34 -4 61 -1 85 9 53 23 74 20 119 -17z m-409 -120
c0 -16 -37 -46 -57 -46 -19 0 -16 37 5 49 25 15 52 13 52 -3z m-390 -412 c71
-16 160 -61 260 -132 81 -58 160 -131 160 -148 0 -20 -34 -4 -126 58 -138 94
-353 168 -490 168 -171 0 -429 -134 -616 -321 -66 -66 -94 -104 -122 -161 -19
-41 -37 -85 -38 -99 -3 -21 1 -24 26 -22 38 3 70 34 119 118 48 84 190 230
233 241 16 4 43 20 61 35 38 33 204 89 341 115 78 15 101 16 150 6 72 -15 198
-75 297 -142 99 -67 153 -90 202 -88 22 0 45 -2 51 -6 19 -11 14 -26 -8 -26
-18 0 -20 -7 -20 -82 1 -97 21 -222 44 -265 24 -47 43 -49 82 -7 19 19 34 40
34 45 0 5 4 9 9 9 6 0 11 -15 13 -32 3 -28 7 -33 29 -33 22 0 25 -4 25 -31 0
-23 13 -48 47 -89 26 -31 51 -75 57 -96 8 -29 16 -39 30 -39 33 0 23 -52 -13
-71 -17 -10 -25 -6 -53 27 -58 68 -40 8 22 -76 31 -41 72 -104 92 -139 41 -73
96 -226 87 -241 -4 -6 -22 -1 -45 12 -21 13 -41 20 -43 18 -3 -3 -12 -57 -22
-119 -9 -63 -19 -119 -22 -124 -3 -5 -17 -6 -30 -2 -25 6 -26 5 -19 -32 12
-59 12 -78 1 -76 -6 1 -23 5 -39 9 l-29 7 7 -52 c7 -55 8 -53 -47 -66 -27 -5
-28 -8 -22 -46 l7 -39 -74 2 -73 3 -3 -28 c-3 -22 -12 -32 -40 -44 -43 -18
-58 -36 -72 -85 -6 -21 -14 -38 -17 -38 -4 0 -24 16 -44 36 -35 34 -36 35 -32
10 5 -25 -4 -39 -90 -142 -45 -53 -115 -64 -161 -25 -18 15 -19 14 -12 -36 l7
-53 -35 0 c-39 0 -46 -11 -46 -76 0 -54 23 -114 44 -114 16 0 21 -14 31 -92 3
-26 2 -49 -4 -52 -5 -4 -48 51 -95 121 -97 148 -166 223 -203 223 -39 0 -62
18 -100 78 -43 68 -73 103 -84 97 -4 -3 -24 15 -45 40 -47 58 -61 65 -145 76
-71 9 -131 35 -205 91 -23 16 -48 28 -55 25 -21 -7 157 -178 214 -206 34 -16
49 -30 53 -49 3 -15 17 -36 30 -47 13 -12 34 -48 47 -80 18 -46 28 -61 45 -63
28 -4 59 -52 102 -155 17 -42 46 -95 63 -118 62 -82 67 -91 60 -131 -4 -31 -2
-38 10 -38 19 0 33 -24 53 -90 8 -26 32 -74 53 -106 59 -88 65 -123 65 -339 0
-220 -17 -333 -65 -433 -17 -34 -46 -75 -65 -90 -32 -26 -34 -29 -28 -74 5
-37 2 -52 -14 -75 -33 -47 -132 -233 -172 -323 -41 -93 -350 -624 -410 -705
-20 -28 -67 -82 -103 -122 -91 -99 -99 -117 -107 -251 -7 -115 -11 -129 -29
-118 -30 19 -43 196 -16 232 21 28 19 31 -27 30 -39 -1 -42 1 -48 30 -8 37
-41 92 -70 119 -24 22 -25 20 -1 -80 10 -44 21 -96 25 -115 5 -32 4 -33 -9
-16 -16 21 -65 146 -89 225 -16 54 -9 69 24 51 25 -13 26 -3 3 23 -25 27 -29
168 -9 341 18 150 31 190 94 283 21 32 49 78 62 103 12 25 64 88 115 140 116
119 171 194 228 312 91 186 177 483 177 607 0 139 -82 442 -175 651 -24 52
-70 155 -104 228 -34 74 -66 154 -72 179 -5 25 -18 58 -28 72 -32 45 -43 129
-48 358 -4 156 -1 255 8 335 8 62 14 181 14 263 -1 172 -9 218 -86 453 -28 84
-49 163 -47 175 3 20 7 22 64 19 72 -4 88 7 104 71 7 23 22 59 36 79 92 142
412 402 550 448 117 39 257 44 394 14z m795 -44 c8 -16 15 -37 15 -47 0 -14
-9 -9 -35 19 -40 43 -44 58 -15 58 11 0 26 -12 35 -30z m-5 -559 c0 -12 -11
-25 -27 -33 -15 -7 -34 -26 -41 -41 -7 -15 -17 -27 -22 -27 -10 0 -70 71 -70
82 0 5 17 6 38 3 27 -4 45 -1 67 14 39 25 55 26 55 2z m79 -67 c19 -24 20 -44
2 -44 -4 0 -15 16 -24 35 -20 41 -7 46 22 9z m-34 -85 c12 -19 -4 -61 -23 -57
-30 6 -28 68 2 68 8 0 18 -5 21 -11z m-2160 -1135 c47 -22 59 -58 52 -162 -7
-123 -33 -184 -129 -303 -44 -54 -86 -99 -94 -99 -7 0 -16 10 -19 23 -17 74
-24 121 -30 192 -8 86 -25 140 -62 195 -34 51 -30 66 33 106 100 64 182 80
249 48z m2045 -235 c12 -22 6 -69 -9 -69 -11 0 -31 46 -31 70 0 26 26 25 40
-1z m-866 -461 c16 -37 8 -57 -15 -42 -15 9 -39 68 -39 96 0 22 0 22 20 3 10
-11 26 -37 34 -57z m-735 -2805 c-20 -54 -89 -163 -103 -163 -3 0 -6 17 -6 38
0 56 64 152 101 152 16 0 17 -4 8 -27z"/>
<path d="M6900 6420 c-11 -7 4 -10 48 -10 40 0 61 4 57 10 -8 13 -85 13 -105
0z"/>
<path d="M7090 6392 c0 -4 23 -30 51 -57 115 -112 132 -255 46 -381 -48 -70
-122 -108 -206 -108 -132 1 -244 57 -289 144 -20 38 -23 55 -19 110 7 87 39
168 88 224 37 42 39 46 18 46 -78 0 -169 -170 -169 -318 0 -71 19 -104 91
-157 87 -64 156 -87 259 -88 116 0 179 25 254 100 70 71 99 128 99 198 0 86
-69 208 -152 270 -34 24 -71 33 -71 17z"/>
<path d="M6940 6179 c-71 -39 -100 -67 -100 -96 0 -20 11 -29 55 -49 76 -33
120 -32 138 4 20 38 29 117 17 147 -13 34 -41 32 -110 -6z"/>
<path d="M7420 6187 c0 -27 33 -62 49 -52 17 10 13 30 -12 53 -30 28 -37 28
-37 -1z"/>
<path d="M6257 6064 c-10 -10 -9 -56 2 -72 6 -10 10 -7 15 11 7 28 -6 72 -17
61z"/>
<path d="M6046 6035 c-27 -27 -17 -59 25 -80 92 -48 108 23 18 79 -25 16 -28
16 -43 1z"/>
<path d="M6387 5853 c-12 -12 -8 -21 38 -74 67 -79 61 -92 -31 -64 -64 19 -88
12 -79 -23 17 -67 202 -253 295 -295 40 -19 63 -21 212 -19 273 3 348 28 517
172 146 125 231 183 257 173 7 -2 10 5 7 21 -3 14 3 38 13 56 16 27 17 32 4
40 -27 18 -96 10 -235 -25 -292 -73 -609 -69 -868 11 -117 37 -120 37 -130 27z"/>
<path d="M7794 5795 c10 -51 26 -73 38 -51 10 18 -4 57 -28 76 -16 14 -17 12
-10 -25z"/>
<path d="M6226 5762 c-8 -13 12 -78 29 -92 23 -19 30 13 14 57 -14 37 -32 52
-43 35z"/>
<path d="M7506 5520 c-54 -46 -77 -50 -100 -17 -16 21 -16 21 -10 -16 12 -73
-60 -140 -267 -251 -115 -62 -138 -60 -140 12 l-1 27 -14 -32 c-20 -48 -50
-63 -119 -63 -128 0 -301 59 -376 128 -30 27 -44 17 -30 -22 22 -56 148 -166
191 -166 8 0 23 -9 33 -20 15 -18 29 -20 127 -20 260 0 457 87 563 248 48 73
99 122 172 165 30 18 45 33 43 44 -5 29 -25 25 -72 -17z"/>
<path d="M6257 5104 c-10 -11 -9 -62 2 -69 5 -3 12 3 15 13 7 22 -6 66 -17 56z"/>
<path d="M6220 4875 c0 -20 29 -65 42 -65 12 0 2 49 -14 67 -14 18 -28 16 -28
-2z"/>
<path d="M6970 4322 c0 -26 4 -41 10 -37 13 8 13 45 0 65 -7 11 -10 3 -10 -28z"/>
<path d="M6380 4064 c0 -26 27 -82 91 -186 97 -159 145 -289 189 -510 38 -188
24 -284 -80 -553 -103 -265 -94 -289 37 -99 45 65 89 128 98 140 24 33 55 200
61 329 5 109 3 128 -20 202 -51 169 -147 383 -237 530 -71 116 -139 188 -139
147z"/>
<path d="M5080 12284 c0 -27 20 -54 40 -54 26 0 26 24 0 50 -24 24 -40 26 -40
4z"/>
<path d="M4584 12055 l-29 -25 26 9 c32 12 65 -8 80 -46 7 -20 5 -35 -11 -65
-11 -21 -20 -47 -20 -57 0 -10 36 -60 81 -111 140 -162 172 -214 352 -575 87
-175 113 -236 191 -442 40 -106 51 -104 43 6 -4 50 -9 110 -12 134 -4 33 1 25
25 -43 43 -120 90 -159 90 -73 0 26 8 42 31 64 l32 30 -7 105 c-5 73 -4 104 3
100 30 -19 36 -94 36 -448 0 -196 3 -359 7 -363 4 -4 11 -4 17 -1 58 36 69
559 16 801 -30 142 -140 497 -176 572 -22 47 -60 104 -89 135 l-49 53 -1 -33
c0 -56 -31 -37 -60 36 -22 59 -26 63 -50 57 -50 -13 -71 -6 -137 44 -36 28
-72 52 -79 52 -8 1 -20 2 -26 3 -7 0 -14 11 -16 24 -4 29 -16 28 -37 -5 l-18
-26 -13 24 c-14 27 -91 73 -140 83 -25 6 -37 2 -60 -19z m163 -194 c18 -14 33
-32 33 -39 0 -20 -33 2 -65 44 -30 39 -22 38 32 -5z m605 -298 c26 -23 22 -35
-9 -31 -20 2 -29 9 -31 26 -4 26 14 29 40 5z m-144 -436 c16 -18 26 -67 14
-67 -13 0 -42 45 -42 65 0 18 14 20 28 2z m192 -125 c0 -26 -5 -54 -10 -62 -7
-10 -10 5 -10 53 0 43 4 66 10 62 6 -3 10 -27 10 -53z"/>
<path d="M5265 11973 c3 -16 22 -64 42 -108 147 -331 153 -348 277 -745 25
-80 52 -154 61 -165 15 -19 16 -15 10 60 -3 44 -9 91 -12 104 -4 17 -2 22 8
19 8 -2 26 -38 41 -79 33 -90 34 -74 8 105 -12 76 -19 140 -17 143 3 2 19 -40
38 -93 53 -155 109 -224 125 -158 7 26 -1 187 -11 255 -3 20 10 -4 31 -56 33
-80 38 -102 42 -200 5 -126 -11 -232 -59 -390 -53 -173 -160 -417 -176 -401
-3 2 13 65 36 140 52 174 81 325 87 451 5 93 4 99 -11 80 -9 -11 -22 -42 -30
-70 -61 -217 -105 -364 -174 -578 -81 -249 -92 -292 -69 -269 7 7 18 12 25 12
18 0 16 -35 -3 -51 -14 -11 -18 -11 -29 4 -11 16 -13 14 -17 -14 -4 -22 1 -38
13 -50 30 -30 59 -11 101 66 21 37 53 91 71 119 19 28 62 105 95 171 34 66 78
147 98 180 46 77 48 83 79 219 14 64 35 141 45 172 31 89 26 168 -21 354 -77
308 -155 490 -255 596 -46 48 -57 56 -63 42 -5 -15 -12 -13 -50 18 -50 39 -65
39 -69 1 -2 -16 -10 -27 -18 -27 -21 0 -107 56 -181 118 -34 29 -65 52 -69 52
-3 0 -3 -12 1 -27z m500 -417 c9 -24 15 -54 13 -67 -3 -23 -4 -23 -21 7 -20
39 -35 120 -19 110 6 -3 18 -26 27 -50z"/>
<path d="M4280 11823 c1 -21 72 -103 90 -103 28 0 32 15 11 41 -20 26 -101 76
-101 62z"/>
<path d="M6920 11324 c-97 -17 -184 -40 -238 -65 -51 -23 -65 -35 -78 -65 -8
-20 -35 -58 -60 -84 -41 -44 -45 -52 -39 -83 8 -41 0 -58 -70 -152 -82 -111
-104 -163 -64 -150 19 6 20 5 9 -16 -7 -12 -43 -53 -81 -91 -79 -78 -86 -98
-35 -98 71 0 260 117 392 242 71 67 153 196 139 217 -3 6 -17 6 -36 -1 -36
-12 -43 -7 -35 26 21 85 193 184 352 202 36 5 58 12 62 22 7 20 -24 41 -50 34
-15 -4 -28 3 -47 26 -27 32 -70 44 -121 36z m-193 -121 c6 -17 -23 -23 -43 -9
-11 8 -15 19 -11 31 7 15 10 16 29 3 12 -8 23 -19 25 -25z m-156 -300 c-21
-43 -51 -74 -51 -54 0 16 29 72 48 94 24 27 26 4 3 -40z"/>
<path d="M2623 10595 c-58 -25 -147 -91 -252 -189 -57 -53 -109 -96 -115 -96
-23 0 -86 -80 -86 -110 0 -17 28 2 120 82 142 123 219 176 233 161 4 -3 15 14
25 38 16 37 28 48 71 67 36 17 51 29 51 43 0 22 -4 23 -47 4z"/>
<path d="M1867 10512 c-38 -38 -48 -72 -23 -72 12 0 76 87 76 103 0 15 -18 5
-53 -31z"/>
<path d="M5080 10447 c0 -34 108 -317 121 -317 12 0 12 -1 -12 93 -23 92 -82
227 -98 227 -6 0 -11 -1 -11 -3z"/>
<path d="M2725 10404 c-27 -17 -49 -23 -67 -20 -36 7 -41 -4 -18 -42 24 -39
36 -40 87 -3 93 67 91 124 -2 65z"/>
<path d="M2475 10341 c-107 -49 -380 -292 -422 -376 -11 -22 -24 -67 -28 -100
-9 -79 -34 -133 -87 -191 -38 -43 -39 -46 -13 -30 113 71 144 108 145 174 0
38 4 52 14 52 20 0 27 26 16 56 -13 34 -14 33 24 27 38 -6 59 3 134 60 90 68
71 31 -41 -79 -59 -57 -107 -109 -107 -114 0 -19 30 -10 63 20 34 29 57 38 57
22 0 -5 -48 -53 -106 -107 -102 -94 -164 -169 -151 -181 11 -11 144 92 327
252 109 95 159 144 146 144 -3 0 -34 -11 -67 -26 -129 -54 -97 -14 111 136
208 151 269 212 179 181 -38 -13 -59 -1 -59 33 0 62 -58 83 -135 47z m95 -26
c0 -7 -18 -29 -41 -50 -22 -20 -39 -39 -36 -41 3 -3 31 2 63 10 32 8 59 14 61
13 6 -7 -149 -120 -202 -148 l-60 -31 35 33 c50 47 70 79 70 117 0 18 7 46 15
62 25 47 95 73 95 35z"/>
<path d="M5451 10181 c-14 -26 -14 -68 1 -77 17 -11 49 35 46 65 -4 32 -33 39
-47 12z"/>
<path d="M2658 10138 c6 -7 24 -21 41 -31 26 -15 31 -16 31 -3 0 18 -38 46
-63 46 -15 0 -17 -3 -9 -12z"/>
<path d="M2427 9863 c-101 -68 -270 -207 -348 -284 -64 -64 -81 -88 -104 -149
-19 -49 -41 -85 -68 -111 -21 -22 -38 -39 -36 -39 2 0 29 7 59 15 30 8 56 12
58 10 3 -2 -14 -25 -37 -51 -40 -46 -45 -57 -42 -99 1 -12 -14 -42 -35 -69
-20 -26 -33 -50 -30 -53 3 -3 32 11 63 32 150 99 330 253 306 262 -7 2 -42
-12 -78 -32 -36 -21 -69 -34 -73 -30 -11 11 164 171 214 195 33 17 44 27 44
45 0 27 -17 41 -44 36 -19 -3 -19 9 0 76 4 15 1 22 -12 25 -13 2 12 31 94 107
155 144 183 191 69 114z m-223 -282 c8 -12 -14 -28 -49 -36 l-30 -6 28 25 c30
27 42 32 51 17z m-4 -99 c0 -10 -94 -71 -100 -65 -7 7 71 73 87 73 7 0 13 -3
13 -8z"/>
<path d="M1481 9393 c-168 -169 -305 -286 -358 -305 -35 -13 -48 -34 -37 -62
21 -54 163 32 329 199 160 161 263 302 234 320 -5 4 -81 -65 -168 -152z"/>
<path d="M1618 9373 c-40 -37 -151 -144 -247 -237 -100 -96 -190 -175 -210
-183 -63 -26 -185 -142 -168 -159 9 -9 65 24 208 121 75 51 150 100 167 109
30 15 32 15 42 -4 6 -11 20 -20 32 -20 19 0 20 4 14 51 -7 51 -7 51 38 90 69
61 219 279 203 295 -3 3 -38 -25 -79 -63z"/>
<path d="M2247 9394 c-4 -4 -7 -57 -7 -118 l0 -110 -52 -51 c-29 -28 -73 -60
-98 -73 -44 -21 -44 -21 -65 -2 -12 11 -26 20 -32 20 -15 0 -41 -32 -45 -55
-2 -17 2 -20 29 -18 39 3 46 -14 46 -113 -1 -99 -23 -143 -132 -257 -84 -88
-104 -117 -83 -117 4 0 13 5 20 12 6 6 15 9 18 5 4 -4 -28 -60 -71 -124 -43
-65 -112 -183 -152 -263 -72 -141 -73 -145 -51 -150 35 -9 36 -61 3 -125 -23
-47 -25 -56 -15 -101 6 -27 13 -55 15 -62 3 -9 39 17 103 74 126 114 292 276
292 286 0 15 -23 8 -72 -22 -26 -16 -51 -30 -55 -30 -3 0 33 40 81 90 106 110
118 157 26 101 -20 -12 -18 -7 11 25 57 62 89 110 99 146 6 19 19 37 32 43 13
6 23 19 23 30 0 16 -6 20 -32 17 -18 -1 -33 2 -33 7 0 4 44 42 98 84 105 82
132 117 131 169 l-1 33 -12 -34 c-16 -44 -31 -49 -56 -19 l-20 23 6 -27 c10
-43 -3 -76 -36 -93 -16 -8 -31 -15 -35 -15 -23 0 43 138 90 187 19 20 35 46
35 59 0 40 19 76 38 72 12 -2 16 -11 14 -31 -3 -19 1 -27 13 -27 25 0 28 26
10 74 -23 59 -17 146 14 209 12 26 54 81 92 123 97 107 94 118 -15 54 -38 -23
-76 -39 -84 -38 -9 2 -24 31 -36 67 -20 62 -34 80 -49 65z m8 -361 c-61 -145
-143 -215 -173 -148 -7 14 -12 30 -12 35 0 20 76 93 125 121 69 40 79 38 60
-8z m-132 -267 c-30 -36 -52 -51 -62 -40 -6 6 68 74 82 74 5 0 -4 -15 -20 -34z
m-45 -133 c-5 -25 -54 -51 -69 -36 -8 8 -6 16 10 32 26 26 64 28 59 4z m-128
-158 c-26 -27 -46 -41 -49 -33 -4 12 66 78 84 78 5 0 -11 -20 -35 -45z m-25
-125 c-8 -13 -100 -60 -116 -60 -20 0 9 27 54 49 45 23 72 27 62 11z"/>
<path d="M2135 8954 c-17 -18 -18 -24 -6 -42 7 -11 13 -9 30 9 11 12 21 26 21
30 0 15 -30 17 -45 3z"/>
<path d="M3424 9313 c-20 -27 -22 -27 -49 -13 -39 21 -585 21 -610 0 -15 -12
-15 -14 0 -22 9 -5 114 -16 233 -23 305 -19 653 -75 817 -132 39 -13 108 -36
155 -52 116 -38 231 -97 292 -148 34 -29 56 -42 68 -38 13 4 26 -5 46 -30 23
-30 31 -35 55 -30 23 5 28 3 31 -16 5 -38 28 -35 28 3 0 39 -15 58 -46 58 -14
0 -31 12 -44 30 -14 20 -30 30 -46 30 -15 0 -37 13 -57 34 -18 19 -48 42 -67
51 -55 27 -80 55 -74 80 5 19 2 21 -23 18 -36 -6 -110 13 -328 82 -150 48
-219 67 -317 89 -16 4 -29 15 -35 31 l-8 26 -21 -28z"/>
<path d="M2120 9150 c-19 -10 -48 -32 -64 -49 -24 -25 -26 -31 -13 -36 22 -9
65 16 112 64 32 34 35 41 20 41 -11 -1 -36 -9 -55 -20z"/>
<path d="M3160 9030 c-113 -7 -195 -24 -185 -40 8 -12 58 -19 259 -35 258 -21
336 -31 425 -56 116 -33 278 -98 310 -125 16 -13 34 -24 40 -24 23 0 90 -40
148 -88 32 -26 78 -62 103 -79 25 -17 72 -55 105 -83 132 -113 406 -274 600
-350 192 -76 329 -120 336 -108 19 30 -43 66 -331 193 -306 134 -397 192 -610
391 -144 134 -259 226 -271 218 -6 -3 -13 4 -16 15 -6 25 -37 42 -114 65 -31
8 -67 27 -82 40 -14 13 -48 29 -76 35 -121 26 -448 42 -641 31z"/>
<path d="M1346 8969 c-81 -43 -277 -264 -337 -381 -36 -70 6 -43 87 55 123
149 215 239 214 210 -1 -11 -69 -101 -186 -246 -132 -162 -156 -203 -156 -266
1 -56 26 -115 45 -105 30 17 58 50 82 98 14 28 77 123 140 211 63 88 124 178
135 201 26 52 26 99 0 121 -27 23 -25 47 5 67 14 9 25 25 25 36 0 25 -5 24
-54 -1z"/>
<path d="M6695 8854 c-273 -17 -540 -85 -540 -139 0 -31 42 -30 130 5 67 28
98 33 219 42 78 5 149 14 158 19 38 20 465 8 561 -16 23 -6 27 -4 27 14 0 27
-34 49 -96 60 -55 10 -367 20 -459 15z"/>
<path d="M7298 8814 c-5 -4 -8 -16 -8 -26 0 -27 57 -48 129 -48 54 0 60 -2 63
-22 2 -12 9 -23 16 -26 19 -6 15 43 -6 61 -41 37 -176 80 -194 61z"/>
<path d="M3110 8563 c-20 -11 -48 -13 -130 -8 -162 9 -300 -16 -300 -55 0 -23
46 -32 114 -24 33 4 84 0 140 -11 66 -13 90 -15 95 -6 11 17 101 -5 341 -80
386 -122 612 -222 835 -369 158 -104 244 -155 251 -148 7 7 -138 142 -238 222
-176 141 -217 168 -343 230 -71 35 -143 75 -158 90 -22 20 -38 26 -75 26 -99
0 -466 105 -487 140 -8 13 -14 12 -45 -7z"/>
<path d="M7150 8570 c-25 -5 -148 -15 -275 -24 -326 -23 -467 -41 -629 -82
-163 -41 -215 -58 -426 -147 -85 -35 -188 -74 -227 -87 -71 -22 -159 -82 -148
-100 15 -25 174 23 372 111 351 156 649 221 1188 259 166 12 205 24 213 64 4
17 0 18 -68 6z"/>
<path d="M2075 8266 c-26 -19 -13 -48 21 -44 34 4 56 34 34 48 -21 13 -33 12
-55 -4z"/>
<path d="M7185 8198 c-55 -5 -139 -18 -186 -28 -87 -19 -209 -72 -209 -90 0
-16 81 -12 131 6 26 10 53 15 61 12 8 -3 20 -24 28 -47 7 -23 16 -41 20 -41 4
0 19 18 34 40 15 23 38 45 52 50 34 13 371 13 490 -1 66 -7 109 -18 141 -35
74 -39 188 -27 188 20 0 18 -24 30 -180 86 -101 37 -344 49 -570 28z"/>
<path d="M2490 8174 c-97 -9 -200 -27 -214 -37 -9 -7 -24 -28 -34 -47 -22 -44
-73 -79 -106 -73 -21 4 -36 -5 -81 -51 -30 -31 -55 -63 -55 -71 0 -25 -38 -55
-69 -55 -37 0 -77 -31 -68 -53 9 -24 33 -21 141 18 53 19 96 31 96 26 0 -5
-46 -33 -102 -61 -141 -72 -258 -142 -268 -160 -21 -40 70 -247 141 -320 39
-40 64 -46 52 -12 -3 9 -32 55 -63 102 -96 143 -106 172 -72 203 30 28 68 21
96 -16 31 -40 80 -146 72 -154 -3 -4 -18 -1 -32 5 -23 11 -25 10 -22 -10 2
-16 12 -24 36 -29 57 -11 103 -66 108 -126 3 -40 32 -82 72 -106 30 -17 31
-17 37 3 8 25 20 25 52 0 32 -25 38 -20 24 21 -6 18 -9 34 -6 37 9 10 72 -48
85 -77 20 -49 1 -64 -68 -55 -61 7 -58 13 -35 -58 13 -44 -35 -10 -142 97
-109 110 -135 130 -135 103 1 -24 25 -57 110 -150 47 -51 92 -102 100 -113 15
-19 14 -19 -10 -4 -100 63 -120 71 -126 54 -10 -25 5 -127 22 -152 10 -16 24
-23 45 -23 58 0 120 43 279 195 208 198 286 226 630 229 204 1 205 1 264 -27
111 -51 246 -163 246 -203 0 -28 -27 -25 -104 10 -99 45 -303 112 -435 142
l-103 23 -87 -28 c-149 -48 -251 -108 -371 -216 -41 -37 -91 -74 -110 -82 -19
-8 -61 -35 -93 -60 -32 -25 -80 -53 -105 -62 -59 -21 -64 -50 -12 -66 57 -17
75 -31 133 -107 84 -110 120 -183 112 -230 -6 -34 -3 -44 30 -83 41 -51 40
-53 -13 -26 -37 20 -78 56 -119 105 -21 26 -43 34 -43 17 0 -21 87 -117 181
-198 182 -159 294 -219 463 -249 44 -7 97 -23 118 -34 88 -46 364 -52 519 -11
136 35 284 123 373 222 72 80 61 119 -34 119 -72 0 -174 -33 -224 -72 l-38
-31 -160 6 c-124 4 -164 9 -184 22 -34 22 -26 38 26 47 81 14 147 74 191 173
18 42 21 61 16 134 -12 198 -107 316 -284 351 -171 34 -348 -61 -425 -227 -38
-80 -45 -180 -16 -210 29 -28 41 -3 48 99 16 209 92 274 316 272 132 -1 185
-21 228 -83 63 -90 88 -233 57 -323 -16 -49 -75 -100 -147 -129 -62 -24 -191
-31 -261 -14 -27 6 -33 4 -33 -9 0 -13 -14 -15 -92 -14 -71 2 -101 -2 -125
-15 -41 -22 -69 -21 -99 2 -13 10 -44 22 -68 25 -50 8 -109 43 -114 69 -2 9 3
24 12 32 19 19 18 23 -55 170 -70 140 -82 199 -55 270 33 86 162 189 351 280
225 109 361 100 660 -44 67 -32 154 -80 195 -106 107 -70 239 -204 280 -285
30 -58 34 -76 39 -175 3 -60 10 -116 14 -123 5 -7 20 -18 34 -23 36 -13 152
-29 169 -22 27 10 14 54 -56 189 -38 74 -70 141 -70 149 0 22 14 18 25 -7 14
-31 53 -30 76 2 26 34 49 149 49 245 0 82 7 125 19 125 4 0 47 -34 97 -76 151
-128 195 -153 208 -119 9 24 -12 66 -58 115 -95 101 -193 256 -182 286 3 8 27
24 53 37 37 17 54 33 75 72 38 69 36 96 -9 146 -145 161 -365 339 -418 339
-26 0 -88 43 -170 118 -78 72 -215 162 -340 224 -102 50 -142 57 -137 26 4
-22 9 -23 -106 7 -144 37 -432 55 -612 39z m903 -213 c18 -31 23 -81 7 -81
-15 0 -63 89 -56 105 7 20 29 10 49 -24z m-748 -76 c88 -19 167 -57 200 -96
14 -17 33 -59 42 -92 17 -59 24 -68 166 -208 l149 -147 -187 -7 c-333 -13
-435 0 -519 67 l-39 31 6 -25 c4 -15 10 -34 13 -43 5 -13 2 -16 -12 -13 -23 4
-57 63 -85 145 -11 35 -28 72 -37 83 -15 18 -21 19 -49 8 -44 -16 -77 0 -103
52 -38 75 -22 219 28 259 23 18 327 8 427 -14z m293 -99 c48 -25 100 -71 90
-82 -13 -12 -148 76 -148 97 0 13 5 12 58 -15z m-826 -73 c9 -10 21 -34 27
-54 16 -49 100 -168 196 -278 43 -50 88 -105 99 -123 l20 -31 -43 7 c-54 8
-62 3 -49 -35 6 -16 8 -33 4 -36 -3 -3 -30 17 -60 45 -59 56 -70 60 -100 37
-11 -8 -37 -15 -58 -15 -33 0 -38 3 -38 23 -1 30 -31 95 -78 164 -78 116 -122
223 -90 223 19 0 48 -32 48 -52 0 -32 46 -112 109 -189 66 -83 97 -107 114
-90 18 18 40 12 77 -19 19 -17 40 -30 47 -30 20 0 2 31 -66 115 -79 97 -116
152 -156 237 -45 94 -47 151 -3 101z m-37 -127 c27 -54 32 -90 13 -84 -17 5
-66 104 -74 148 l-6 35 21 -25 c12 -14 32 -47 46 -74z m1857 57 c31 -30 36
-53 13 -53 -20 0 -65 45 -65 65 0 23 21 18 52 -12z m98 -198 c0 -19 -4 -35
-10 -35 -5 0 -10 16 -10 35 0 19 5 35 10 35 6 0 10 -16 10 -35z m-1827 -55
c17 -28 12 -46 -9 -32 -11 7 -64 87 -64 97 0 13 58 -38 73 -65z m1421 -414
c60 -25 161 -134 142 -153 -9 -9 -204 125 -216 148 -9 16 -7 19 15 19 14 0 40
-6 59 -14z"/>
<path d="M6384 7945 c-4 -9 0 -23 8 -31 20 -20 50 -7 46 20 -4 26 -45 35 -54
11z"/>
<path d="M6219 7901 c-108 -57 -448 -146 -714 -186 -234 -35 -565 -2 -699 69
-70 37 -162 54 -196 36 -11 -6 -18 -16 -14 -22 22 -36 410 -179 493 -182 33
-1 51 -7 63 -21 15 -18 28 -20 125 -19 138 2 283 27 403 69 52 18 167 59 255
90 88 31 198 65 245 77 98 23 133 39 155 70 14 21 14 24 -2 35 -26 20 -55 16
-114 -16z"/>
<path d="M7810 7826 c0 -26 4 -36 13 -33 14 5 12 46 -3 61 -7 7 -10 -3 -10
-28z"/>
<path d="M7360 7695 c0 -22 4 -34 10 -30 6 3 10 17 10 30 0 13 -4 27 -10 30
-6 4 -10 -8 -10 -30z"/>
<path d="M1833 7509 c7 -50 30 -80 49 -61 10 10 8 22 -11 57 -30 57 -45 58
-38 4z"/>
<path d="M1714 7392 c6 -35 69 -135 136 -215 37 -45 51 -77 32 -77 -12 0 -54
30 -94 68 -21 20 -43 32 -51 29 -8 -3 -23 3 -33 14 -26 29 -35 10 -24 -50 11
-61 34 -112 59 -135 16 -15 19 -13 42 21 13 21 34 39 46 41 20 3 22 -1 20 -36
-1 -44 31 -114 89 -194 35 -47 54 -60 54 -35 0 6 -14 57 -30 112 -29 100 -28
132 5 105 21 -18 29 -6 14 22 -24 47 -188 274 -229 318 l-41 45 5 -33z m54
-237 c16 -36 15 -75 -2 -75 -17 0 -26 22 -26 66 0 40 12 44 28 9z m149 -159
c7 -69 -8 -75 -32 -12 -14 35 -15 48 -5 66 17 32 30 13 37 -54z"/>
<path d="M5163 7382 c-56 -76 -83 -166 -83 -279 0 -81 12 -72 30 22 17 89 43
166 69 202 11 15 23 40 27 56 8 37 -15 36 -43 -1z"/>
<path d="M1960 7320 c0 -24 25 -60 42 -60 24 0 24 32 0 53 -20 19 -42 22 -42
7z"/>
<path d="M1770 6956 c0 -3 30 -52 67 -108 59 -90 68 -100 71 -76 4 30 -15 71
-53 117 -27 31 -85 77 -85 67z"/>
<path d="M4879 6891 c-35 -11 -60 -25 -178 -99 -57 -35 -133 -78 -168 -94 -57
-26 -62 -30 -53 -48 10 -20 25 -24 65 -21 11 1 81 31 155 66 185 88 211 96
315 104 81 5 90 8 90 26 0 37 -164 85 -226 66z"/>
<path d="M3043 6593 c2 -24 -2 -28 -36 -34 -46 -7 -65 -24 -73 -64 -4 -22 0
-38 16 -58 18 -23 29 -27 71 -27 73 0 92 23 87 106 -3 43 -10 69 -22 83 -27
29 -45 27 -43 -6z"/>
<path d="M4793 6413 c-14 -22 -18 -47 -17 -120 l1 -93 -32 0 c-22 0 -35 -6
-40 -17 -10 -26 -24 -366 -25 -594 0 -180 2 -198 20 -221 10 -14 35 -60 54
-102 23 -49 41 -76 51 -76 14 0 15 6 8 33 -10 39 -6 389 7 672 13 273 13 545
0 545 -5 0 -18 -12 -27 -27z m-13 -785 c0 -64 -3 -88 -10 -78 -16 25 -11 170
6 170 2 0 4 -42 4 -92z"/>
<path d="M1442 6368 c-27 -35 -76 -104 -110 -154 l-61 -91 30 -174 c85 -497
169 -674 452 -963 l108 -111 -70 104 c-39 57 -69 107 -66 109 3 3 44 -36 91
-86 92 -99 122 -116 154 -87 19 18 20 17 20 -7 0 -14 -9 -33 -20 -43 -27 -24
-25 -45 10 -125 17 -38 30 -84 30 -103 0 -27 15 -58 62 -126 45 -67 62 -101
62 -127 1 -29 4 -34 20 -30 25 7 56 -11 56 -31 0 -13 -3 -14 -12 -5 -22 22
-41 14 -34 -13 3 -14 9 -36 12 -50 11 -46 -14 -26 -92 70 -72 90 -109 122 -83
73 25 -48 132 -198 189 -267 33 -39 60 -75 60 -81 0 -5 -10 -10 -22 -10 -15 0
-47 25 -92 72 l-69 72 68 -129 c37 -72 73 -137 78 -145 5 -8 -34 29 -87 82
-53 53 -96 95 -96 92 0 -2 34 -64 75 -138 79 -142 91 -175 54 -156 -24 14 -37
6 -21 -13 14 -16 32 -126 32 -194 0 -85 18 -147 51 -179 31 -29 38 -54 15 -54
-7 0 -33 16 -57 35 -98 78 -60 11 63 -112 l88 -87 -3 294 c-2 282 -1 299 22
385 33 128 117 359 155 430 18 33 36 78 40 100 9 48 45 115 136 250 37 55 74
114 83 131 9 17 51 69 93 115 97 106 126 150 130 197 4 47 45 86 81 77 24 -6
26 -3 37 48 4 16 17 32 31 39 32 14 31 28 0 58 -28 26 -27 27 -45 -18 -14 -35
-89 -100 -124 -107 -12 -2 -34 -7 -50 -10 -16 -3 -46 -24 -65 -46 -20 -21 -42
-39 -48 -39 -6 0 -28 20 -49 45 -20 25 -39 43 -41 41 -3 -3 3 -28 12 -56 9
-28 14 -54 11 -57 -3 -3 -21 6 -40 21 -45 34 -57 33 -24 -1 27 -29 68 -92 68
-106 0 -4 -11 -5 -25 -1 -17 4 -32 1 -44 -11 -21 -18 -20 -20 -36 50 -8 35
-55 113 -72 119 -7 3 -15 -4 -18 -15 -7 -23 -14 -23 -39 -4 -26 20 -95 20
-102 0 -4 -9 12 -43 36 -80 23 -35 39 -69 35 -75 -3 -5 -28 -10 -55 -10 -56 0
-66 14 -50 69 l9 34 -22 -22 c-13 -11 -26 -21 -30 -21 -3 0 -16 23 -28 50 -21
48 -39 65 -39 36 0 -8 13 -43 30 -78 33 -69 37 -88 17 -88 -20 0 -69 56 -131
152 -50 77 -76 109 -76 95 0 -3 20 -47 44 -98 64 -134 53 -133 -51 5 -42 54
-63 69 -63 43 0 -7 20 -47 45 -89 58 -99 59 -120 5 -78 -14 11 -39 20 -56 20
-20 0 -39 9 -55 26 -32 35 -104 84 -122 84 -39 0 -133 168 -195 349 -29 86
-36 120 -36 179 l1 73 -23 -22 c-12 -11 -27 -18 -33 -15 -13 8 -2 38 38 101
17 27 31 57 31 67 0 16 -6 14 -39 -13 -54 -43 -71 -35 -71 35 0 39 -4 55 -15
60 -12 4 -15 27 -15 116 0 118 -7 132 -46 89 -21 -24 -25 -87 -11 -176 7 -41
6 -53 -4 -53 -24 0 -69 53 -69 80 0 15 -7 50 -16 79 -17 57 -12 102 13 123 14
11 15 10 8 -12 -4 -14 -10 -31 -13 -39 -3 -8 0 -12 9 -9 14 5 128 147 129 161
0 5 -19 -8 -42 -27 -43 -38 -68 -46 -68 -22 0 16 27 53 97 129 56 61 66 87 34
87 -12 0 -39 -25 -69 -62z m-8 -614 c-3 -13 -10 -21 -15 -18 -11 6 -12 68 -2
78 11 11 24 -33 17 -60z m1083 -721 c26 -44 24 -74 -4 -52 -17 14 -63 102 -63
120 0 19 39 -21 67 -68z m72 21 c24 -31 26 -44 8 -44 -7 0 -21 16 -30 35 -20
41 -7 46 22 9z m-680 -30 c21 -27 20 -44 -4 -44 -16 0 -45 38 -45 57 0 22 27
14 49 -13z m616 -191 c-7 -31 -23 -53 -36 -53 -14 0 -10 34 7 58 21 31 38 28
29 -5z m-453 -68 c124 -141 251 -322 263 -374 5 -24 2 -37 -11 -52 -9 -10 -20
-19 -23 -19 -3 0 -17 25 -30 55 -23 55 -38 78 -194 308 -114 168 -116 208 -5
82z m166 -1247 c14 -14 16 -78 2 -78 -15 0 -41 57 -34 74 7 19 16 20 32 4z"/>
<path d="M2755 6331 c-8 -13 47 -71 68 -71 8 0 20 6 26 14 9 11 6 18 -15 35
-15 12 -30 21 -35 21 -4 0 -14 3 -22 6 -8 3 -18 1 -22 -5z"/>
<path d="M1547 6083 c-13 -13 -7 -53 8 -53 14 0 35 29 35 49 0 12 -33 15 -43
4z"/>
<path d="M2351 5969 c0 -8 51 -47 112 -87 62 -41 159 -111 217 -158 58 -46
136 -105 174 -131 69 -48 69 -48 150 -48 72 1 94 6 206 49 154 60 290 123 290
136 0 10 -16 8 -165 -22 -141 -28 -311 -34 -404 -14 -97 20 -201 73 -281 142
-96 83 -302 174 -299 133z"/>
<path d="M3196 5322 c-9 -15 20 -57 42 -60 27 -4 28 8 1 42 -21 27 -34 32 -43
18z"/>
<path d="M4109 5213 c-24 -20 -92 -83 -150 -140 -58 -57 -113 -103 -123 -103
-11 0 -20 15 -28 45 -15 57 -28 40 -28 -37 0 -32 -3 -58 -7 -58 -5 0 -17 17
-28 37 -26 48 -48 61 -70 43 -15 -12 -17 -26 -12 -90 7 -91 -3 -117 -33 -81
-11 13 -20 32 -20 42 0 10 -4 19 -9 19 -4 0 -11 -32 -13 -71 -6 -79 -15 -94
-61 -94 -29 0 -32 -3 -38 -38 -3 -21 -13 -46 -22 -55 -15 -15 -18 -14 -41 7
-21 19 -24 20 -30 6 -3 -9 -6 -43 -6 -76 0 -70 -14 -77 -54 -24 -15 19 -31 35
-35 35 -5 0 -12 -26 -15 -57 -10 -84 -14 -93 -42 -93 -32 0 -42 -25 -52 -120
l-7 -75 -43 3 c-47 3 -50 -4 -31 -71 14 -50 5 -75 -29 -79 -34 -4 -51 -47 -51
-136 -1 -69 -14 -104 -35 -96 -16 6 -21 -8 -31 -76 -4 -25 -22 -103 -40 -175
-38 -148 -51 -229 -60 -365 -13 -211 -61 -439 -99 -466 -21 -15 -21 -15 -1
-30 11 -8 31 -14 45 -12 37 4 56 54 107 283 155 692 398 1168 840 1647 55 59
105 119 113 135 8 15 38 53 67 83 112 118 253 318 253 359 0 22 -37 10 -81
-26z"/>
<path d="M1947 5095 c28 -40 62 -70 70 -62 8 8 -22 42 -62 70 l-30 22 22 -30z"/>
<path d="M4301 4941 c-6 -10 -41 -39 -79 -64 -74 -49 -107 -83 -149 -154 -42
-72 -83 -201 -83 -264 0 -49 4 -62 36 -103 67 -89 155 -141 267 -162 36 -6 37
-5 37 24 0 34 -37 70 -138 133 -95 59 -120 126 -87 235 36 122 201 314 270
314 11 0 30 6 40 14 16 12 17 16 6 30 -20 24 -107 22 -120 -3z"/>
<path d="M4801 4853 c-34 -7 -139 -115 -185 -192 -40 -65 -58 -142 -37 -155
21 -14 46 4 71 50 13 26 63 90 110 141 142 158 146 176 41 156z"/>
<path d="M2140 3257 c0 -7 9 -30 19 -51 11 -21 29 -79 41 -129 30 -129 65
-188 132 -223 75 -39 76 -2 0 79 -130 140 -149 186 -43 107 130 -98 95 5 -52
155 -72 73 -97 89 -97 62z"/>
<path d="M3121 3163 c-18 -39 -75 -276 -107 -448 -24 -127 -28 -176 -29 -320
0 -152 2 -177 23 -236 42 -123 47 -116 47 63 0 90 7 224 15 298 l15 135 6
-200 c4 -110 7 -229 8 -265 4 -142 20 -22 41 300 12 184 27 369 33 410 14 93
13 192 -2 248 -13 48 -32 54 -50 15z m35 -149 c-3 -8 -10 -12 -16 -9 -12 7
-14 58 -3 69 10 10 26 -41 19 -60z m-34 -147 c5 -27 0 -47 -13 -47 -5 0 -9 16
-9 35 0 39 15 48 22 12z"/>
<path d="M2306 2802 c-9 -15 30 -76 64 -99 40 -28 60 -29 60 -5 0 32 -111 125
-124 104z"/>
<path d="M2914 1769 c-8 -14 31 -53 45 -45 17 11 13 34 -8 46 -25 13 -28 13
-37 -1z"/>
</g>
</svg>
